<svg width="40" height="47" viewBox="0 0 40 47" fill="none" xmlns="http://www.w3.org/2000/svg">
<path fill-rule="evenodd" clip-rule="evenodd" d="M37.3457 31.2373H38.4883C39.3218 31.2373 40 31.9199 40 32.7598V36.3291C40 37.168 39.3228 37.8506 38.4902 37.8516V45.5664C38.4902 46.3569 37.8516 47 37.0664 47H21.5952C21.2178 47 20.9116 46.6919 20.9116 46.3115C20.9116 45.9312 21.2178 45.623 21.5952 45.623H37.0664C37.0977 45.623 37.123 45.5977 37.123 45.5664V37.8521H2.87695V45.5664C2.87695 45.5977 2.90234 45.623 2.93359 45.623H18.4048C18.7822 45.623 19.0884 45.9312 19.0884 46.3115C19.0884 46.6919 18.7822 47 18.4048 47H2.93359C2.14844 47 1.50977 46.3569 1.50977 45.5664V37.8516C0.677246 37.8506 0 37.168 0 36.3291V32.7598C0 31.9199 0.678223 31.2368 1.51172 31.2368H2.65381V22.2598C2.65381 22.1094 2.70312 21.9624 2.79395 21.8423L6.08008 17.5034C5.76074 17.0806 5.57031 16.5532 5.57031 15.9819C5.57031 14.5933 6.69189 13.4639 8.07031 13.4639C9.44873 13.4639 10.5703 14.5933 10.5703 15.9819C10.5703 17.3701 9.44873 18.4995 8.07031 18.4995C7.75391 18.4995 7.45166 18.4395 7.17285 18.3311L4.02148 22.4927V31.2368H7.28906V24.8418C7.28906 21.4961 10.1372 20.2783 10.2583 20.228L10.2715 20.2231L16.7109 17.7085V16.4121C15.5933 15.562 14.8887 14.3037 14.6816 12.9937C14.1768 12.9365 13.708 12.7368 13.3208 12.4014C12.7783 11.9312 12.4673 11.2476 12.4673 10.5254C12.4673 9.96436 12.665 9.43457 13.0308 9V6.95996C13.0308 3.12207 16.1309 0 19.9414 0C23.7515 0 26.8516 3.12207 26.8516 6.95996V8.94824C27.2134 9.3877 27.4155 9.94434 27.4155 10.5259C27.4155 11.248 27.1045 11.9316 26.562 12.4014C26.1758 12.7358 25.7085 12.9355 25.2051 12.9932C25.0005 14.3369 24.2925 15.5146 23.2817 16.3271V17.709L29.7285 20.2231L29.7412 20.2285C29.8628 20.2788 32.7109 21.4966 32.7109 24.8423V26.0283C32.7109 26.4082 32.4048 26.7168 32.0273 26.7168C31.6499 26.7168 31.3438 26.4082 31.3438 26.0283V24.8423C31.3438 22.4595 29.3296 21.5488 29.2256 21.5039L25.4175 20.0186L23.7495 23.3848C23.6069 23.6729 23.3467 23.8833 23.0361 23.9614C22.6089 24.0693 22.3179 23.9199 22.0239 23.71L21.6919 24.2129L22.8726 31.2373H27.0107V25.8472C27.0107 25.4668 27.3169 25.1587 27.6943 25.1587C28.0718 25.1587 28.3779 25.4668 28.3779 25.8472V31.2373H31.3438V29.2412C31.3438 28.8608 31.6499 28.5527 32.0273 28.5527C32.4048 28.5527 32.7109 28.8608 32.7109 29.2412V31.2373H35.9785V22.4932L32.8271 18.3315C32.5483 18.4399 32.2456 18.5 31.9297 18.5C30.5508 18.5 29.4297 17.3706 29.4297 15.9819C29.4297 14.5938 30.5508 13.4644 31.9297 13.4644C33.3081 13.4644 34.4297 14.5938 34.4297 15.9819C34.4297 16.5532 34.2393 17.0806 33.9199 17.5034L37.2056 21.8428C37.2964 21.9629 37.3457 22.1094 37.3457 22.2603V31.2373ZM30.7969 15.9819C30.7969 16.6113 31.3052 17.123 31.9297 17.123C32.541 17.123 33.0625 16.6187 33.0625 15.9819C33.0625 15.353 32.5542 14.8413 31.9297 14.8413C31.3052 14.8413 30.7969 15.353 30.7969 15.9819ZM8.07031 14.8413C8.69482 14.8413 9.20312 15.353 9.20312 15.9819C9.20312 16.6113 8.69482 17.123 8.07031 17.123C7.45898 17.123 6.9375 16.6187 6.9375 15.9819C6.9375 15.353 7.4458 14.8413 8.07031 14.8413ZM22.6689 22.4819L24.1367 19.5186L22.8159 19.0034L20.9863 21.2778L22.6689 22.4819ZM19.998 22.2607L20.9087 22.9116L20.606 23.3706H19.3901L19.0879 22.9121L19.998 22.2607ZM18.0781 17.1548V17.9316L19.998 20.3188L21.9146 17.936V17.1226C21.3418 17.3481 20.6738 17.4829 20.0078 17.4829C19.3809 17.4829 18.7041 17.3809 18.0781 17.1548ZM20.395 24.7476L21.4858 31.2373H18.5107L19.6016 24.7476H20.395ZM25.6709 11.3569C25.9106 11.1489 26.0483 10.8462 26.0483 10.5259C26.0483 10.042 25.7363 9.61768 25.2661 9.47217V11.5806C25.4155 11.5347 25.5522 11.4595 25.6709 11.3569ZM14.6167 11.5806C14.4673 11.5347 14.3306 11.46 14.2124 11.3574C13.9722 11.1494 13.8345 10.8467 13.8345 10.5259C13.8345 10.1699 14.0327 9.91895 14.1724 9.78613L14.1792 9.78027C14.3057 9.66211 14.457 9.57227 14.6167 9.51172V11.5806ZM14.6777 8.07812C14.7319 7.91895 14.8389 7.74658 14.9717 7.62256C15.1973 7.41211 15.502 7.30518 15.8071 7.32812C17.936 7.48193 20.2261 6.85107 22.0918 5.62354C22.5483 5.32275 23.1445 5.40381 23.5083 5.79736L24.1909 6.5332L24.2065 6.5498L24.2134 6.55713C24.6104 6.98389 24.8306 7.2207 24.9727 7.39453C25.2002 7.67285 25.2578 7.82031 25.2651 8.06445C25.3389 8.07471 25.4121 8.0874 25.4844 8.104V6.95996C25.4844 3.88135 22.9976 1.37695 19.9414 1.37695C16.8848 1.37695 14.3979 3.88135 14.3984 6.95996V8.13623C14.4902 8.11182 14.5835 8.09229 14.6777 8.07812ZM15.9844 12.1875V8.75342V8.71777C17.2705 8.7749 18.5874 8.58643 19.8384 8.19482C20.8228 7.88672 21.7769 7.44922 22.6553 6.89502L23.2817 7.56982L23.3154 7.60547L23.4893 7.79248C23.6758 7.99316 23.8198 8.15039 23.8984 8.24219V12.1875C23.8984 14.3511 22.146 16.1064 20.0073 16.1064C17.6465 16.1064 15.9844 14.2764 15.9844 12.1875ZM19.0083 21.2798L17.1782 19.0044L15.8599 19.5186L17.3276 22.4819L19.0083 21.2798ZM8.65625 24.8423C8.65625 22.4629 10.6475 21.5586 10.7749 21.5034L14.5791 20.0181L16.2466 23.3843C16.4341 23.7627 16.8154 23.9941 17.2261 23.9941C17.5786 23.9941 17.7954 23.8374 17.9434 23.7305L17.9727 23.7095L18.3042 24.2129L17.124 31.2368H12.9893V25.8467C12.9893 25.4663 12.6831 25.1582 12.3057 25.1582C11.9282 25.1582 11.6221 25.4663 11.6221 25.8467V31.2368H8.65625V24.8423ZM38.4883 36.4751C38.5679 36.4751 38.6328 36.4097 38.6328 36.3296V32.7598C38.6328 32.6797 38.5679 32.6143 38.4883 32.6143H1.51172C1.43213 32.6143 1.36719 32.6797 1.36719 32.7598V36.3296C1.36719 36.4097 1.43213 36.4751 1.51172 36.4751H38.4883Z" fill="#637C98"/>
</svg>
