<svg width="63" height="52" viewBox="0 0 63 52" fill="none" xmlns="http://www.w3.org/2000/svg">
<path fill-rule="evenodd" clip-rule="evenodd" d="M56.9678 6.33813H47.4624C46.8433 6.33813 46.3398 5.83447 46.3398 5.21582C46.3398 2.33984 44.0005 0 41.125 0H4.15869C1.86572 0 0 1.86597 0 4.15942V46.4131C0 48.7065 1.86572 50.5725 4.15869 50.5725H56.9678C59.2607 50.5725 61.1265 48.7065 61.1265 46.4131V10.4973C61.1265 8.20386 59.2607 6.33813 56.9678 6.33813ZM44.3599 5.21582C44.3599 5.61157 44.4351 5.98975 44.5708 6.33813H39.0127C38.394 6.33813 37.8906 5.83472 37.8906 5.21582C37.8906 3.99438 37.4673 2.87061 36.7617 1.98071H41.125C42.9087 1.98071 44.3599 3.43188 44.3599 5.21582ZM29.4409 5.21582C29.4409 5.83472 29.9443 6.33813 30.563 6.33813H36.1211C35.9854 5.98975 35.9102 5.61157 35.9102 5.21582C35.9102 3.43188 34.459 1.98071 32.6753 1.98071H28.312C29.0176 2.87061 29.4409 3.99438 29.4409 5.21582ZM20.3735 1.98071H24.2261C26.0098 1.98071 27.4604 3.43188 27.4604 5.21582C27.4604 5.61157 27.5361 5.98975 27.6714 6.33813H22.1138C21.4951 6.33813 20.9917 5.83472 20.9917 5.21582V4.15942C20.9917 3.36108 20.7651 2.61475 20.3735 1.98071ZM56.9678 48.592C58.1689 48.592 59.1465 47.6145 59.1465 46.4133V10.4976C59.1465 9.29614 58.1689 8.31885 56.9678 8.31885H22.1138C20.4033 8.31885 19.0112 6.92676 19.0112 5.21582V4.15942C19.0112 2.95801 18.0342 1.98071 16.833 1.98071H15.7769H4.15869C2.95752 1.98071 1.98047 2.95801 1.98047 4.15942V46.4133C1.98047 47.6145 2.95752 48.592 4.15869 48.592H56.9678Z" transform="translate(0.0693359 0.709961)" fill="#D80027"/>
<path d="M0.963128 1.9084H14.3185C14.8504 1.9084 15.2816 1.48117 15.2816 0.954198C15.2816 0.427226 14.8504 0 14.3185 0H0.963128C0.431225 0 0 0.427226 0 0.954198C0 1.48117 0.431225 1.9084 0.963128 1.9084Z" transform="translate(7.70996 15.0229)" fill="#D80027"/>
<path d="M21.9401 0H0.982391C0.439849 0 0 0.427226 0 0.954198C0 1.48117 0.439849 1.9084 0.982391 1.9084H21.9401C22.4826 1.9084 22.9224 1.48117 22.9224 0.954198C22.9224 0.427226 22.4826 0 21.9401 0Z" transform="translate(7.70996 26.4734)" fill="#D80027"/>
<path d="M21.9401 0H0.982391C0.439849 0 0 0.427226 0 0.954198C0 1.48117 0.439849 1.9084 0.982391 1.9084H21.9401C22.4826 1.9084 22.9224 1.48117 22.9224 0.954198C22.9224 0.427226 22.4826 0 21.9401 0Z" transform="translate(7.70996 20.748)" fill="#D80027"/>
<path d="M1.43265 0C0.642701 0 0 0.642093 0 1.4313C0 2.2205 0.642701 2.8626 1.43265 2.8626C2.22261 2.8626 2.86531 2.2205 2.86531 1.4313C2.86531 0.642093 2.22261 0 1.43265 0Z" transform="translate(38.2734 22.6565)" fill="#D80027"/>
<path fill-rule="evenodd" clip-rule="evenodd" d="M0 5.7251C0 2.56836 2.5708 0 5.73047 0C8.89062 0 11.4614 2.56836 11.4614 5.7251C11.4614 8.88208 8.89062 11.4504 5.73047 11.4504C2.5708 11.4504 0 8.88208 0 5.7251ZM1.97607 5.7251C1.97607 7.79346 3.66016 9.47607 5.73047 9.47607C7.80078 9.47607 9.48535 7.79346 9.48535 5.7251C9.48535 3.65674 7.80078 1.97412 5.73047 1.97412C3.66016 1.97412 1.97607 3.65674 1.97607 5.7251Z" transform="translate(33.498 18.8398)" fill="#D80027"/>
</svg>
