<svg width="77" height="67" viewBox="0 0 77 67" fill="none" xmlns="http://www.w3.org/2000/svg">
<path fill-rule="evenodd" clip-rule="evenodd" d="M27.4448 5.25488H26.0522V3.85913C26.0522 1.7312 24.3252 0 22.2017 0H9.09375C6.9707 0 5.24316 1.7312 5.24316 3.85913V5.25488H3.85059C1.72754 5.25488 0 6.98608 0 9.11401V11.7415C0 12.4216 0.550293 12.9731 1.229 12.9731H30.0669C30.7451 12.9731 31.2954 12.4216 31.2954 11.7415V9.11401C31.2954 6.98608 29.5684 5.25488 27.4448 5.25488ZM7.70117 3.85913C7.70117 3.0896 8.32617 2.46338 9.09375 2.46338H22.2021C22.9697 2.46338 23.5947 3.0896 23.5947 3.85913V5.25513H7.70117V3.85913ZM2.45801 10.51H28.8379V9.11401C28.8379 8.34448 28.2134 7.71826 27.4453 7.71826H3.85059C3.08301 7.71826 2.45801 8.34448 2.45801 9.11401V10.51Z" transform="translate(45.1699 52.8757)" fill="#D80027"/>
<path fill-rule="evenodd" clip-rule="evenodd" d="M46.9673 30.8569L47.0254 30.7986L44.1758 27.9429C43.9502 28.0076 43.7148 28.0427 43.4736 28.0427C42.7949 28.0427 42.1572 27.7778 41.6777 27.2969L41.3481 26.9668L38.8003 29.5203C38.0498 30.2725 37.0635 30.6487 36.0776 30.6487C36.0127 30.6487 35.9473 30.6445 35.8823 30.6404L35.8325 30.6372L6.57324 59.9617C5.84619 60.6907 4.87891 61.092 3.85059 61.092C2.82178 61.092 1.85498 60.6907 1.12793 59.9617C0.400391 59.2329 0 58.2639 0 57.2329C0 56.2019 0.400391 55.2329 1.12793 54.5042L30.3872 25.1794C30.3198 24.1108 30.6885 23.0198 31.5015 22.2048L34.0493 19.6514L33.7197 19.3213C33.2402 18.8406 32.9761 18.2014 32.9761 17.5215C32.9761 17.2795 33.0107 17.0437 33.0757 16.8176L30.2256 13.9614L30.168 14.0195C29.417 14.772 28.4312 15.1482 27.4448 15.1482C26.459 15.1482 25.4731 14.772 24.7222 14.0195C23.9951 13.2908 23.5947 12.3215 23.5947 11.2908C23.5947 10.26 23.9951 9.29077 24.7222 8.56201L32.1372 1.13037C32.8643 0.401611 33.8315 0 34.8599 0C35.8887 0 36.8555 0.401611 37.5825 1.13037C38.3101 1.85938 38.7104 2.82837 38.7104 3.85913C38.7104 4.88989 38.3101 5.85913 37.5825 6.58789L37.5249 6.646L40.3755 9.50269C41.2339 9.25684 42.1978 9.47119 42.8726 10.1477L50.8306 18.1235C51.5059 18.8 51.7197 19.7656 51.4741 20.6265L54.3247 23.4834L54.3823 23.425C55.1099 22.6963 56.0767 22.2949 57.105 22.2949C58.1338 22.2949 59.1006 22.6963 59.8281 23.425C60.5552 24.1541 60.9556 25.123 60.9556 26.1541C60.9556 27.1848 60.5552 28.1541 59.8281 28.8828L52.4126 36.3142C51.6855 37.043 50.7188 37.4446 49.6899 37.4446C48.6616 37.4446 47.6943 37.043 46.9673 36.3142C45.4658 34.8098 45.4658 32.3616 46.9673 30.8569ZM58.0903 25.167C57.8188 24.895 57.4619 24.7588 57.1055 24.7588C56.7485 24.7588 56.3921 24.8948 56.1206 25.1667L48.7056 32.5986C48.1626 33.1428 48.1626 34.0283 48.7056 34.5725C49.2485 35.1167 50.1318 35.1169 50.6753 34.5725L58.0903 27.1411C58.3535 26.8774 58.4985 26.5269 58.4985 26.1541C58.4985 25.781 58.3535 25.4307 58.0903 25.167ZM48.7632 29.0569L46.1382 26.426L49.9614 22.594L52.5869 25.2249L48.7632 29.0569ZM33.8755 2.87207L26.4604 10.3037C25.9175 10.8479 25.9175 11.7336 26.4604 12.2778C27.0034 12.8218 27.8867 12.8218 28.4302 12.2778L35.8452 4.84619C36.3882 4.30176 36.3882 3.41626 35.8452 2.87207C35.582 2.6084 35.2324 2.46313 34.8604 2.46313C34.4883 2.46313 34.1382 2.6084 33.8755 2.87207ZM35.7866 8.3877L38.4121 11.0186L34.5884 14.8506L31.9634 12.2197L35.7866 8.3877ZM3.85059 58.6287C4.22266 58.6287 4.57227 58.4834 4.83545 58.22L33.416 29.5754L33.3892 29.551C33.3774 29.541 33.3662 29.5312 33.3555 29.5203L31.5015 27.6624C31.4927 27.6538 31.4849 27.6448 31.4771 27.6357L31.4717 27.6294L31.4463 27.6013L2.86621 56.2458C2.60303 56.5095 2.45801 56.8599 2.45801 57.2329C2.45801 57.606 2.60303 57.9563 2.86621 58.22C3.12891 58.4836 3.47852 58.6287 3.85059 58.6287ZM37.0625 27.7786C36.5195 28.3228 35.6362 28.3228 35.0928 27.7786L33.2393 25.9207C32.6963 25.3765 32.6963 24.491 33.2393 23.9465L35.7871 21.3931L39.6104 25.2251L37.0625 27.7786ZM35.4336 17.5212C35.4336 17.5552 35.4517 17.5732 35.4575 17.5793L43.4155 25.5552C43.4214 25.561 43.4395 25.5791 43.4736 25.5791C43.5073 25.5791 43.5254 25.561 43.5312 25.5552L49.0928 19.9814C49.1245 19.9495 49.1245 19.8972 49.0928 19.8652L41.1348 11.8894C41.1187 11.8735 41.0977 11.8655 41.0767 11.8655C41.0557 11.8655 41.0347 11.8735 41.0186 11.8894L35.4575 17.4631C35.4517 17.469 35.4336 17.4873 35.4336 17.5212Z" transform="translate(0.602539 0.815674)" fill="#D80027"/>
</svg>
