<svg width="335" height="290" viewBox="0 0 335 290" fill="none" xmlns="http://www.w3.org/2000/svg">
<g opacity="0.0484933">
<path fill-rule="evenodd" clip-rule="evenodd" d="M0 102.779H118.117L58.9747 0L0 102.779Z" transform="translate(143.808 187.125)" fill="#333333"/>
<path fill-rule="evenodd" clip-rule="evenodd" d="M17.5402 8.61035C17.5192 25.5305 12.4569 42.905 1.00549 65.0669C1.00549 65.0669 0.509727 65.9614 0 66.856C1.55711 69.5607 51.3777 156.139 67.7588 184.577H123.326L17.0514 0L17.5402 8.61035Z" transform="translate(211.399 105.326)" fill="#333333"/>
<path fill-rule="evenodd" clip-rule="evenodd" d="M127.914 161.514C135.511 147.124 142.193 130.588 142.2 113.926C142.207 95.9369 138.234 78.1222 130.504 62.9911L95.291 0L86.9888 14.3972L87.0097 14.3832L65.6361 51.4035L82.5758 81.5328L88.8322 92.6941C95.4447 104.428 95.4097 123.634 88.6995 135.347L87.7918 136.892L37.4335 224.617L0 289.9H54.5199C54.5199 289.9 124.304 168.007 125.672 165.582C127.013 163.184 127.914 161.514 127.914 161.514Z" transform="translate(72.5298 0.00341797)" fill="#333333"/>
<path fill-rule="evenodd" clip-rule="evenodd" d="M149.266 38.315L129.291 3.74268L83.8705 82.1187L0 227H56.2453L149.063 64.2844C152.916 57.7065 152.972 45.0535 149.266 38.315ZM131.463 0L131.218 0.425957H131.232L131.463 0Z" transform="translate(0 63)" fill="#333333"/>
</g>
</svg>
