<svg width="67" height="55" viewBox="0 0 67 55" fill="none" xmlns="http://www.w3.org/2000/svg">
<path fill-rule="evenodd" clip-rule="evenodd" d="M40.1904 45.5791C40.3296 44.9788 40.9312 44.6038 41.5337 44.7422C42.1367 44.8806 42.5127 45.4797 42.374 46.0803L40.8774 52.5532C40.7603 53.0598 40.3076 53.4187 39.7856 53.4187H1.12012C0.778809 53.4187 0.456055 53.2639 0.243652 52.9978C0.03125 52.7314 -0.0478516 52.3835 0.0288086 52.0522L3.91553 35.2405L0.0288086 18.4287C-0.00927734 18.2642 -0.00927734 18.0928 0.0288086 17.928L3.97314 0.865479C4.09033 0.358887 4.54297 0 5.06494 0H43.7305C44.0718 0 44.3945 0.154785 44.6069 0.421143C44.8193 0.687256 44.8989 1.03516 44.8223 1.36646L40.9355 18.1782L42.7285 25.9355C42.8677 26.5359 42.4917 27.135 41.8887 27.2734C41.2856 27.4119 40.6846 27.0371 40.5454 26.4365L38.8945 19.2944H2.52783L5.95654 34.1245H33.6616C34.2803 34.1245 34.7817 34.6243 34.7817 35.2405C34.7817 35.8569 34.2803 36.3564 33.6616 36.3564H5.95654L2.52783 51.1868H38.894L40.1904 45.5791ZM42.3232 2.23218H5.95654L2.52783 17.0625H38.8945L42.3232 2.23218Z" transform="translate(0.83252 0.0512695)" fill="#D80027"/>
<path d="M1.11241 2.13675H20.2451C20.8594 2.13675 21.3575 1.6584 21.3575 1.06838C21.3575 0.478348 20.8594 0 20.2451 0H1.11241C0.498065 0 0 0.478348 0 1.06838C0 1.6584 0.498065 2.13675 1.11241 2.13675Z" transform="translate(9.37549 6.46143)" fill="#D80027"/>
<path d="M1.11241 2.13675H20.2451C20.8594 2.13675 21.3575 1.6584 21.3575 1.06838C21.3575 0.478348 20.8594 0 20.2451 0H1.11241C0.498065 0 0 0.478348 0 1.06838C0 1.6584 0.498065 2.13675 1.11241 2.13675Z" transform="translate(7.23975 11.8035)" fill="#D80027"/>
<path d="M21.3575 1.06838C21.3575 0.478348 20.8594 0 20.2451 0H1.11241C0.498065 0 0 0.478348 0 1.06838C0 1.6584 0.498065 2.13675 1.11241 2.13675H20.2451C20.8594 2.13675 21.3575 1.6584 21.3575 1.06838Z" transform="translate(9.37549 39.5813)" fill="#D80027"/>
<path d="M1.11241 0C0.498065 0 0 0.478348 0 1.06838C0 1.6584 0.498065 2.13675 1.11241 2.13675H20.2451C20.8594 2.13675 21.3575 1.6584 21.3575 1.06838C21.3575 0.478348 20.8594 0 20.2451 0H1.11241Z" transform="translate(7.23975 44.9231)" fill="#D80027"/>
<path d="M21.3575 1.06838C21.3575 0.478348 20.8594 0 20.245 0H1.11242C0.498068 0 0 0.478348 0 1.06838C0 1.6584 0.498068 2.13675 1.11242 2.13675H20.2452C20.8594 2.13675 21.3575 1.6584 21.3575 1.06838Z" transform="translate(7.23975 23.5557)" fill="#D80027"/>
<path d="M1.11241 2.13675H20.2451C20.8594 2.13675 21.3575 1.6584 21.3575 1.06838C21.3575 0.478348 20.8594 0 20.2451 0H1.11241C0.498065 0 0 0.478348 0 1.06838C0 1.6584 0.498065 2.13675 1.11241 2.13675Z" transform="translate(9.37549 28.8975)" fill="#D80027"/>
<path d="M0.463537 4.48301C0.541013 4.85767 0.819545 5.16381 1.19382 5.2859C1.3093 5.3235 1.42831 5.34188 1.54659 5.34188C1.81186 5.34188 2.07272 5.24943 2.2776 5.07463L6.03344 1.86951C6.49093 1.47919 6.53453 0.803944 6.1308 0.361475C5.72722 -0.0808506 5.02919 -0.12316 4.57155 0.267312L2.25389 2.24517L2.1882 1.92721C2.06845 1.3487 1.48723 0.973324 0.888184 1.08914C0.289878 1.20496 -0.0979462 1.7678 0.0216561 2.34646L0.463537 4.48301Z" transform="translate(32.8687 4.32471)" fill="#D80027"/>
<path d="M2.4604 6.41026C2.51389 6.41026 2.56768 6.40655 2.62146 6.39885C3.00487 6.34418 3.32857 6.09897 3.46996 5.75595L5.26427 1.40673C5.48286 0.877026 5.20803 0.279181 4.65055 0.0714734C4.09293 -0.136509 3.46389 0.124911 3.24529 0.65462L2.138 3.33861L1.93314 3.09381C1.56058 2.64845 0.878476 2.57426 0.409624 2.92841C-0.0590844 3.28242 -0.137154 3.93054 0.235557 4.37604L1.61161 6.02108C1.81907 6.26904 2.1328 6.41026 2.4604 6.41026Z" transform="translate(31.8008 20.3503)" fill="#D80027"/>
<path d="M1.61175 6.02108C1.81922 6.26904 2.1328 6.41026 2.4604 6.41026C2.51389 6.41026 2.56768 6.40655 2.62146 6.39885C3.00487 6.34418 3.32857 6.09897 3.46996 5.75595L5.26427 1.40673C5.48286 0.877026 5.20803 0.279181 4.65055 0.0714734C4.09278 -0.136509 3.46389 0.124911 3.24529 0.65462L2.138 3.33861L1.93314 3.09381C1.56058 2.64845 0.878621 2.57426 0.409624 2.92841C-0.0590844 3.28242 -0.137154 3.93054 0.235557 4.37604L1.61175 6.02108Z" transform="translate(32.8687 26.7607)" fill="#D80027"/>
<path fill-rule="evenodd" clip-rule="evenodd" d="M31.7334 6.30322L26.0249 0.345947C25.8218 0.134033 25.541 0.00976562 25.2441 0.000488281C24.9458 -0.0078125 24.6592 0.0976562 24.4424 0.296631L3.05127 19.9419C2.91406 20.0679 2.81152 20.2256 2.75293 20.4006L0.0556641 28.4778C-0.0717773 28.8584 0.0234375 29.2764 0.303223 29.5684C0.517578 29.792 0.814453 29.9146 1.11963 29.9146C1.21289 29.9146 1.30664 29.9031 1.39893 29.8799L9.80469 27.7598C9.98682 27.7139 10.1543 27.6238 10.2915 27.4978L31.6826 7.85229C32.1333 7.43823 32.1562 6.74463 31.7334 6.30322ZM2.81836 27.2581L4.29395 22.8406L7.41553 26.0986L2.81836 27.2581ZM5.3999 20.7908L9.57617 25.1492L29.3345 7.00342L25.1582 2.64502L5.3999 20.7908Z" transform="translate(33.9365 15.0085)" fill="#D80027"/>
</svg>
