<svg width="258" height="72" viewBox="0 0 258 72" fill="none" xmlns="http://www.w3.org/2000/svg">
<path fill-rule="evenodd" clip-rule="evenodd" d="M5.77515 25.2V4.45867H0V0H16.7805V4.45867H11.0046V25.2H5.77515Z" transform="translate(40.9023 6.29999)" fill="#A12339"/>
<path fill-rule="evenodd" clip-rule="evenodd" d="M7.93999 3.61591C5.45402 3.61591 4.56296 5.9648 4.48926 7.82866H11.4276C11.3531 5.9648 10.5372 3.61591 7.93999 3.61591ZM0 9.43186C0 4.21275 3.04242 0 8.01436 0C12.9487 0 15.7317 4.02615 15.7317 9.61773V10.8855H4.48919C4.67492 13.3454 6.12169 15.2841 8.83025 15.2841C10.092 15.2841 11.7245 14.651 12.7261 13.5321L14.7669 16.2157C13.1713 17.9684 10.7598 18.9 8.3475 18.9C3.30185 18.9 0 15.0982 0 9.43186Z" transform="translate(55.5854 12.6)" fill="#A12339"/>
<path fill-rule="evenodd" clip-rule="evenodd" d="M11.7146 17.85L8.38986 11.9L5.02593 17.85H0L5.45141 8.75872L0.270343 0H5.33544L8.38986 5.61745L11.4059 0H16.471L11.2899 8.75872L16.7805 17.85H11.7146Z" transform="translate(70.2681 13.65)" fill="#A12339"/>
<path fill-rule="evenodd" clip-rule="evenodd" d="M0 17.85V0H4.49476V6.65255H10.1502V0H14.6829V17.85H10.1502V10.5331H4.49476V17.85H0Z" transform="translate(88.0977 13.65)" fill="#A12339"/>
<path fill-rule="evenodd" clip-rule="evenodd" d="M12.0193 9.43186C12.0193 6.48686 10.9056 3.95135 8.37165 3.95135C5.9132 3.95135 4.80029 6.48686 4.80029 9.43186C4.80029 12.4139 5.9132 14.9494 8.37165 14.9494C10.9056 14.9494 12.0193 12.4139 12.0193 9.43186ZM0 9.43186C0 4.39936 2.91841 0 8.37156 0C13.901 0 16.7805 4.39936 16.7805 9.43186C16.7805 14.5014 13.901 18.9 8.37156 18.9C2.91841 18.9 0 14.5014 0 9.43186Z" transform="translate(104.878 12.6)" fill="#A12339"/>
<path fill-rule="evenodd" clip-rule="evenodd" d="M13.677 25.2V4.45867H5.16206V25.2H0V0H18.878V25.2H13.677Z" transform="translate(123.756 6.29999)" fill="#A12339"/>
<path fill-rule="evenodd" clip-rule="evenodd" d="M11.0985 9.78107C11.0985 6.53352 9.90345 4.09766 7.58607 4.09766C6.39102 4.09766 5.08239 5.02531 4.48486 6.26321V13.2989C5.08239 14.4977 6.39102 15.5029 7.58607 15.5029C9.90345 15.5029 11.0985 13.067 11.0985 9.78107ZM4.48481 16.7784V26.25H0V0.463827H4.48481V2.82213C5.60564 0.96605 7.28762 0 9.0431 0C13.1167 0 15.7317 3.67299 15.7317 9.78107C15.7317 15.85 13.1167 19.5998 9.0431 19.5998C7.324 19.5998 5.60564 18.7113 4.48481 16.7784Z" transform="translate(144.732 12.6)" fill="#A12339"/>
<path fill-rule="evenodd" clip-rule="evenodd" d="M12.0177 9.43186C12.0177 6.48686 10.9049 3.95135 8.37023 3.95135C5.91342 3.95135 4.7998 6.48686 4.7998 9.43186C4.7998 12.4139 5.91342 14.9494 8.37023 14.9494C10.9049 14.9494 12.0177 12.4139 12.0177 9.43186ZM0 9.43186C0 4.39936 2.91828 0 8.37041 0C13.8996 0 16.7805 4.39936 16.7805 9.43186C16.7805 14.5014 13.8996 18.9 8.37041 18.9C2.91828 18.9 0 14.5014 0 9.43186Z" transform="translate(162.561 12.6)" fill="#A12339"/>
<path fill-rule="evenodd" clip-rule="evenodd" d="M11.5366 3.88126H4.43732V17.85H0V0H11.5366V3.88126Z" transform="translate(180.39 13.65)" fill="#A12339"/>
<path fill-rule="evenodd" clip-rule="evenodd" d="M11.0985 9.78107C11.0985 6.53352 9.90198 4.09766 7.58535 4.09766C6.38955 4.09766 5.08167 5.02531 4.4834 6.26321V13.2989C5.08167 14.4977 6.38955 15.5029 7.58535 15.5029C9.90198 15.5029 11.0985 13.067 11.0985 9.78107ZM4.48332 16.7784V26.25H0V0.463827H4.48332V2.82213C5.60489 0.96605 7.28688 0 9.0431 0C13.1152 0 15.7317 3.67299 15.7317 9.78107C15.7317 15.85 13.1152 19.5998 9.0431 19.5998C7.324 19.5998 5.60489 18.7113 4.48332 16.7784Z" transform="translate(194.024 12.6)" fill="#A12339"/>
<path fill-rule="evenodd" clip-rule="evenodd" d="M7.93999 3.61591C5.45402 3.61591 4.5637 5.9648 4.48926 7.82866H11.4276C11.3531 5.9648 10.5372 3.61591 7.93999 3.61591ZM0 9.43186C0 4.21275 3.04242 0 8.01436 0C12.948 0 15.7317 4.02615 15.7317 9.61773V10.8855H4.48919C4.67492 13.3454 6.12243 15.2841 8.83098 15.2841C10.092 15.2841 11.7245 14.651 12.7261 13.5321L14.7669 16.2157C13.1713 17.9684 10.7598 18.9 8.3475 18.9C3.30259 18.9 0 15.0982 0 9.43186Z" transform="translate(211.854 12.6)" fill="#A12339"/>
<path fill-rule="evenodd" clip-rule="evenodd" d="M0 9.43186C0 3.95135 3.44479 0 8.6528 0C11.6286 0 13.5863 1.15519 14.6829 2.42368L12.3333 5.51753C11.4723 4.51044 10.4534 3.95135 9.16147 3.95135C6.45946 3.95135 4.8549 6.30025 4.8549 9.43186C4.8549 12.5627 6.45946 14.9494 9.16147 14.9494C10.4534 14.9494 11.4723 14.3896 12.3333 13.3832L14.6829 16.4771C13.5863 17.7448 11.6286 18.9 8.6528 18.9C3.44479 18.9 0 14.9494 0 9.43186Z" transform="translate(228.634 12.6)" fill="#A12339"/>
<mask id="mask0" mask-type="alpha" maskUnits="userSpaceOnUse" x="0" y="6" width="258" height="26">
<path fill-rule="evenodd" clip-rule="evenodd" d="M0 0H257.559V25.3095H0V0Z" transform="translate(0.0454102 6.64777)" fill="white"/>
</mask>
<g mask="url(#mask0)">
<path fill-rule="evenodd" clip-rule="evenodd" d="M0 9.73538C0 4.07851 3.36159 0 8.44191 0C11.3459 0 13.2559 1.19237 14.3251 2.50168L12.0334 5.69508C11.1926 4.65558 10.2001 4.07851 8.93894 4.07851C6.30355 4.07851 4.73734 6.50299 4.73734 9.73538C4.73734 12.967 6.30355 15.4305 8.93894 15.4305C10.2001 15.4305 11.1926 14.8526 12.0334 13.8139L14.3251 17.0073C13.2559 18.3158 11.3459 19.5082 8.44191 19.5082C3.36159 19.5082 0 15.4305 0 9.73538Z" transform="translate(243.28 12.4491)" fill="#A12339"/>
</g>
<path fill-rule="evenodd" clip-rule="evenodd" d="M16.1531 4.1604L13.9916 0.406433L9.07624 8.91673L0 24.6484H6.08671L16.1312 6.98023C16.5482 6.26598 16.5542 4.89208 16.1531 4.1604ZM14.2267 0L14.2002 0.0462516H14.2017L14.2267 0Z" transform="translate(0 7.16901)" fill="#A12339"/>
<path fill-rule="evenodd" clip-rule="evenodd" d="M0 11.1504H12.8255L6.40363 0L0 11.1504Z" transform="translate(15.5469 20.6669)" fill="#A12339"/>
<path fill-rule="evenodd" clip-rule="evenodd" d="M1.90456 0.934131C1.90229 2.76979 1.3526 4.65473 0.109179 7.05906C0.109179 7.05906 0.0553475 7.15611 0 7.25317C0.169075 7.5466 5.57873 16.9395 7.35743 20.0247H13.3911L1.85149 0L1.90456 0.934131Z" transform="translate(22.8862 11.7927)" fill="#A12339"/>
<path fill-rule="evenodd" clip-rule="evenodd" d="M13.8892 17.5225C14.7141 15.9614 15.4397 14.1674 15.4404 12.3598C15.4412 10.4081 15.0098 8.47542 14.1705 6.83387L10.347 0L9.44547 1.56194L9.44775 1.56042L7.12694 5.57673L8.9663 8.84544L9.64563 10.0563C10.3636 11.3294 10.3598 13.413 9.63123 14.6838L9.53266 14.8513L4.06463 24.3685L0 31.4511H5.91991C5.91991 31.4511 13.4972 18.2269 13.6458 17.9638C13.7914 17.7038 13.8892 17.5225 13.8892 17.5225Z" transform="translate(7.80713 0.366211)" fill="#A12339"/>
<path fill-rule="evenodd" clip-rule="evenodd" d="M9.95387 12.11H8.83387L8.84787 9.8H0.713867V0H1.88987V8.68H7.55987V0H8.73587V8.68H9.95387V12.11ZM10.9761 6.43999C10.9761 4.08799 12.7261 2.91199 14.3221 2.91199C16.9121 2.91199 17.8641 5.02599 17.4441 6.92999H12.0961C12.2361 8.34399 13.5101 8.93199 14.8681 8.93199C15.6941 8.93199 16.5061 8.70799 17.0801 8.38599V9.47799C16.4641 9.79999 15.5821 9.96799 14.7001 9.96799C12.7121 9.96799 10.9761 8.83399 10.9761 6.43999ZM16.4502 5.95C16.5482 5.236 16.1002 3.948 14.3922 3.948C13.2442 3.948 12.1802 4.634 12.0962 5.95H16.4502ZM20.202 9.80002H19.082V3.08002H20.202V5.92202H24.094V3.08002H25.214V9.80002H24.094V6.95802H20.202V9.80002ZM30.0858 9.80002H28.9658V4.11602H26.4878V3.08002H32.5498V4.11602H30.0858V9.80002ZM34.8322 4.19999C35.4342 3.51399 36.2602 2.91199 37.5482 2.91199C39.4662 2.91199 40.9082 4.42399 40.9082 6.43999C40.9082 8.45599 39.4662 9.96799 37.5482 9.96799C36.2602 9.96799 35.4342 9.36599 34.9442 8.79199V12.88H33.8242V3.07999H34.8322V4.19999ZM39.7878 6.44C39.7878 4.9 38.7238 3.948 37.4218 3.948C36.2178 3.948 35.3218 4.732 34.9438 5.6V7.28C35.3218 8.148 36.2178 8.932 37.4218 8.932C38.7238 8.932 39.7878 7.98 39.7878 6.44ZM47.1239 9.80002H46.0039V3.08002H52.1359V9.80002H51.0159V4.11602H47.1239V9.80002ZM55.216 4.19999C55.818 3.51399 56.644 2.91199 57.932 2.91199C59.85 2.91199 61.292 4.42399 61.292 6.43999C61.292 8.45599 59.85 9.96799 57.932 9.96799C56.644 9.96799 55.818 9.36599 55.328 8.79199V12.88H54.208V3.07999H55.216V4.19999ZM60.1721 6.44C60.1721 4.9 59.1081 3.948 57.8061 3.948C56.6021 3.948 55.7061 4.732 55.3281 5.6V7.28C55.7061 8.148 56.6021 8.932 57.8061 8.932C59.1081 8.932 60.1721 7.98 60.1721 6.44ZM62.4399 6.43999C62.4399 4.14399 64.2039 2.91199 66.0239 2.91199C67.8579 2.91199 69.6079 4.14399 69.6079 6.43999C69.6079 8.73599 67.8579 9.96799 66.0239 9.96799C64.2039 9.96799 62.4399 8.73599 62.4399 6.43999ZM68.4881 6.44001C68.4881 4.88601 67.3961 3.97601 66.0241 3.97601C64.6521 3.97601 63.5601 4.88601 63.5601 6.44001C63.5601 7.99401 64.6521 8.90401 66.0241 8.90401C67.3961 8.90401 68.4881 7.99401 68.4881 6.44001ZM75.7962 12.88H74.6762V9.968C72.4502 9.912 70.7422 8.568 70.7422 6.44C70.7422 4.312 72.4502 2.968 74.6762 2.912V0H75.7962V2.912C78.0222 2.968 79.7302 4.312 79.7302 6.44C79.7302 8.568 78.0222 9.912 75.7962 9.968V12.88ZM71.8618 6.44003C71.8618 7.98003 72.9818 8.93203 74.6758 8.98803V3.89203C72.9818 3.94803 71.8618 4.90003 71.8618 6.44003ZM75.7959 3.89203V8.98803C77.4899 8.93203 78.6099 7.98003 78.6099 6.44003C78.6099 4.90003 77.4899 3.94803 75.7959 3.89203ZM80.8638 6.43999C80.8638 4.08799 82.6138 2.91199 84.2098 2.91199C86.7998 2.91199 87.7518 5.02599 87.3318 6.92999H81.9838C82.1238 8.34399 83.3978 8.93199 84.7558 8.93199C85.5818 8.93199 86.3938 8.70799 86.9678 8.38599V9.47799C86.3518 9.79999 85.4698 9.96799 84.5878 9.96799C82.5998 9.96799 80.8638 8.83399 80.8638 6.43999ZM86.3379 5.95C86.4359 5.236 85.9879 3.948 84.2799 3.948C83.1319 3.948 82.0679 4.634 81.9839 5.95H86.3379ZM88.5078 6.46799C88.5078 4.01799 90.3978 2.91199 92.1478 2.91199C92.9038 2.91199 93.6458 3.07999 94.2198 3.45799V4.54999C93.7158 4.15799 93.0018 3.94799 92.2878 3.94799C90.9858 3.94799 89.6278 4.67599 89.6278 6.43999C89.6278 8.16199 90.9438 8.93199 92.2598 8.93199C92.9878 8.93199 93.7298 8.72199 94.2898 8.38599V9.50599C93.6598 9.81399 92.9458 9.96799 92.1058 9.96799C90.3418 9.96799 88.5078 8.86199 88.5078 6.46799ZM95.4658 6.46799C95.4658 4.01799 97.3558 2.91199 99.1058 2.91199C99.8618 2.91199 100.604 3.07999 101.178 3.45799V4.54999C100.674 4.15799 99.9598 3.94799 99.2458 3.94799C97.9438 3.94799 96.5858 4.67599 96.5858 6.43999C96.5858 8.16199 97.9018 8.93199 99.2178 8.93199C99.9458 8.93199 100.688 8.72199 101.248 8.38599V9.50599C100.618 9.81399 99.9038 9.96799 99.0638 9.96799C97.2998 9.96799 95.4658 8.86199 95.4658 6.46799ZM103.838 9.80002H102.886V3.08002H104.006V7.99402L108.122 3.08002H109.074V9.80002H107.954V4.88602L103.838 9.80002ZM110.684 6.43999C110.684 4.14399 112.448 2.91199 114.268 2.91199C116.102 2.91199 117.852 4.14399 117.852 6.43999C117.852 8.73599 116.102 9.96799 114.268 9.96799C112.448 9.96799 110.684 8.73599 110.684 6.43999ZM116.732 6.44001C116.732 4.88601 115.64 3.97601 114.268 3.97601C112.896 3.97601 111.804 4.88601 111.804 6.44001C111.804 7.99401 112.896 8.90401 114.268 8.90401C115.64 8.90401 116.732 7.99401 116.732 6.44001ZM120.582 9.80002H119.462V3.08002H120.582V5.92202H124.474V3.08002H125.594V9.80002H124.474V6.95802H120.582V9.80002ZM133.126 8.39999C133.126 8.80599 133.35 8.91799 133.644 8.91799C133.812 8.91799 133.994 8.87599 134.162 8.81999V9.72999C133.896 9.82799 133.602 9.88399 133.322 9.88399C132.776 9.88399 132.286 9.65999 132.09 9.07199C131.418 9.63199 130.564 9.96799 129.472 9.96799C128.282 9.96799 127.106 9.33799 127.106 7.92399C127.106 6.18799 128.702 5.65599 130.144 5.65599C130.732 5.65599 131.446 5.73999 132.006 5.86599V5.62799C132.006 4.61999 131.32 3.94799 130.088 3.94799C129.052 3.94799 128.226 4.19999 127.638 4.45199V3.35999C128.17 3.17799 129.094 2.91199 130.2 2.91199C131.992 2.91199 133.126 3.89199 133.126 5.76799V8.39999ZM128.254 7.86799C128.254 8.65199 128.968 9.00199 129.71 9.00199C130.564 9.00199 131.418 8.65199 132.006 8.02199V6.78999C131.53 6.69199 130.844 6.59399 130.298 6.59399C129.318 6.59399 128.254 6.88799 128.254 7.86799ZM137.746 4.11602C137.522 7.56002 137.046 9.91202 135.31 9.91202C135.058 9.91202 134.792 9.87002 134.498 9.75802V8.87602C134.652 8.93202 134.806 8.96002 134.946 8.96002C136.136 8.96002 136.528 6.69202 136.654 3.08002H141.596V9.80002H140.476V4.11602H137.746ZM146.86 9.80002H143.668V3.08002H144.788V5.43202H146.86C148.498 5.43202 149.464 6.37002 149.464 7.61602C149.464 8.86202 148.498 9.80002 146.86 9.80002ZM144.788 6.44V8.792H146.72C147.7 8.792 148.33 8.414 148.33 7.616C148.33 6.818 147.7 6.44 146.72 6.44H144.788ZM152.026 9.80002H150.906V3.08002H152.026V5.92202H155.918V3.08002H157.038V9.80002H155.918V6.95802H152.026V9.80002ZM158.648 6.43999C158.648 4.14399 160.412 2.91199 162.232 2.91199C164.066 2.91199 165.816 4.14399 165.816 6.43999C165.816 8.73599 164.066 9.96799 162.232 9.96799C160.412 9.96799 158.648 8.73599 158.648 6.43999ZM164.696 6.44001C164.696 4.88601 163.604 3.97601 162.232 3.97601C160.86 3.97601 159.768 4.88601 159.768 6.44001C159.768 7.99401 160.86 8.90401 162.232 8.90401C163.604 8.90401 164.696 7.99401 164.696 6.44001ZM168.546 9.80002H167.426V3.08002H172.34V4.11602H168.546V9.80002ZM173.152 6.43999C173.152 4.14399 174.916 2.91199 176.736 2.91199C178.57 2.91199 180.32 4.14399 180.32 6.43999C180.32 8.73599 178.57 9.96799 176.736 9.96799C174.916 9.96799 173.152 8.73599 173.152 6.43999ZM179.2 6.44001C179.2 4.88601 178.108 3.97601 176.736 3.97601C175.364 3.97601 174.272 4.88601 174.272 6.44001C174.272 7.99401 175.364 8.90401 176.736 8.90401C178.108 8.90401 179.2 7.99401 179.2 6.44001ZM0 22.44C0 20.144 1.764 18.912 3.584 18.912C5.418 18.912 7.168 20.144 7.168 22.44C7.168 24.736 5.418 25.968 3.584 25.968C1.764 25.968 0 24.736 0 22.44ZM6.04812 22.44C6.04812 20.886 4.95612 19.976 3.58412 19.976C2.21212 19.976 1.12012 20.886 1.12012 22.44C1.12012 23.994 2.21212 24.904 3.58412 24.904C4.95612 24.904 6.04812 23.994 6.04812 22.44ZM15.3442 22.636C15.3442 24.736 13.9442 25.968 11.9142 25.968C9.88422 25.968 8.42822 24.582 8.42822 22.034C8.42822 19.78 9.29622 18.226 10.5002 17.47C12.4322 16.28 13.7622 16.784 14.7422 15.832V17.008C13.7762 17.694 12.6982 17.4 11.1582 18.296C10.2202 18.856 9.84222 19.766 9.56222 20.62C10.0382 19.878 10.9902 19.36 12.0402 19.36C13.7902 19.36 15.3442 20.634 15.3442 22.636ZM9.54785 22.664C9.54785 23.938 10.4719 24.904 11.8859 24.904C13.3559 24.904 14.2239 23.938 14.2239 22.664C14.2239 21.39 13.3559 20.424 11.8859 20.424C10.4859 20.424 9.54785 21.53 9.54785 22.664ZM17.9758 20.2C18.5778 19.514 19.4038 18.912 20.6918 18.912C22.6098 18.912 24.0518 20.424 24.0518 22.44C24.0518 24.456 22.6098 25.968 20.6918 25.968C19.4038 25.968 18.5778 25.366 18.0878 24.792V28.88H16.9678V19.08H17.9758V20.2ZM22.9319 22.44C22.9319 20.9 21.8679 19.948 20.5659 19.948C19.3619 19.948 18.4659 20.732 18.0879 21.6V23.28C18.4659 24.148 19.3619 24.932 20.5659 24.932C21.8679 24.932 22.9319 23.98 22.9319 22.44ZM31.1221 24.4C31.1221 24.806 31.3461 24.918 31.6401 24.918C31.8081 24.918 31.9901 24.876 32.1581 24.82V25.73C31.8921 25.828 31.5981 25.884 31.3181 25.884C30.7721 25.884 30.2821 25.66 30.0861 25.072C29.4141 25.632 28.5601 25.968 27.4681 25.968C26.2781 25.968 25.1021 25.338 25.1021 23.924C25.1021 22.188 26.6981 21.656 28.1401 21.656C28.7281 21.656 29.4421 21.74 30.0021 21.866V21.628C30.0021 20.62 29.3161 19.948 28.0841 19.948C27.048 19.948 26.2221 20.2 25.6341 20.452V19.36C26.166 19.178 27.0901 18.912 28.1961 18.912C29.9881 18.912 31.1221 19.892 31.1221 21.768V24.4ZM26.25 23.868C26.25 24.652 26.964 25.002 27.706 25.002C28.56 25.002 29.414 24.652 30.002 24.022V22.79C29.526 22.692 28.84 22.594 28.294 22.594C27.314 22.594 26.25 22.888 26.25 23.868ZM38.3882 23.994C38.3882 25.268 37.2262 25.968 35.3642 25.968C34.4122 25.968 33.5162 25.758 32.8862 25.45V24.386C33.4602 24.694 34.4122 24.932 35.2242 24.932C36.2882 24.932 37.2682 24.736 37.2682 23.868C37.2682 23.042 36.4562 22.902 35.7842 22.902H34.3142V21.866H35.7842C36.5402 21.866 37.1282 21.642 37.1282 20.998C37.1282 20.256 36.3302 19.934 35.2802 19.934C34.4822 19.934 33.6142 20.158 32.9982 20.466V19.416C33.6702 19.108 34.5102 18.898 35.4062 18.898C37.2822 18.898 38.2482 19.668 38.2482 20.844C38.2482 21.656 37.7582 22.188 37.0022 22.356C37.7582 22.552 38.3882 23.126 38.3882 23.994ZM39.5781 22.44C39.5781 20.144 41.3421 18.912 43.1621 18.912C44.9961 18.912 46.7461 20.144 46.7461 22.44C46.7461 24.736 44.9961 25.968 43.1621 25.968C41.3421 25.968 39.5781 24.736 39.5781 22.44ZM45.6262 22.44C45.6262 20.886 44.5342 19.976 43.1622 19.976C41.7902 19.976 40.6982 20.886 40.6982 22.44C40.6982 23.994 41.7902 24.904 43.1622 24.904C44.5342 24.904 45.6262 23.994 45.6262 22.44ZM52.15 25.8H48.356V19.08H52.038C53.214 19.08 54.11 19.71 54.11 20.9C54.11 21.6 53.718 22.16 53.214 22.384C53.76 22.566 54.32 23.098 54.32 23.938C54.32 25.044 53.606 25.8 52.15 25.8ZM49.4761 22.888V24.82H51.9961C52.6961 24.82 53.2001 24.61 53.2001 23.868C53.2001 23.07 52.5981 22.888 52.0381 22.888H49.4761ZM49.4761 20.06V21.922H51.9261C52.5141 21.922 52.9761 21.698 52.9761 21.012C52.9761 20.256 52.4021 20.06 51.9261 20.06H49.4761ZM61.4878 24.4C61.4878 24.806 61.7118 24.918 62.0058 24.918C62.1738 24.918 62.3558 24.876 62.5238 24.82V25.73C62.2578 25.828 61.9638 25.884 61.6838 25.884C61.1378 25.884 60.6478 25.66 60.4518 25.072C59.7798 25.632 58.9258 25.968 57.8338 25.968C56.6438 25.968 55.4678 25.338 55.4678 23.924C55.4678 22.188 57.0638 21.656 58.5058 21.656C59.0938 21.656 59.8078 21.74 60.3678 21.866V21.628C60.3678 20.62 59.6818 19.948 58.4498 19.948C57.4138 19.948 56.5878 20.2 55.9998 20.452V19.36C56.5318 19.178 57.4558 18.912 58.5618 18.912C60.3538 18.912 61.4878 19.892 61.4878 21.768V24.4ZM56.6162 23.868C56.6162 24.652 57.3302 25.002 58.0722 25.002C58.9262 25.002 59.7802 24.652 60.3682 24.022V22.79C59.8922 22.692 59.2062 22.594 58.6602 22.594C57.6802 22.594 56.6162 22.888 56.6162 23.868ZM64.848 25.8H63.728V19.08H64.848V21.922H68.74V19.08H69.86V25.8H68.74V22.958H64.848V25.8ZM72.8841 25.8H71.9321V19.08H73.0521V23.994L77.1681 19.08H78.1201V25.8H77.0001V20.886L72.8841 25.8ZM80.8639 25.8H79.5479L81.4939 23.336C80.4439 23.028 79.8839 22.202 79.8839 21.264C79.8839 20.088 80.7659 19.08 82.4039 19.08H85.7079V25.8H84.5879V23.448H82.6979L80.8639 25.8ZM81.0039 21.264C81.0039 22.006 81.5639 22.44 82.5019 22.44H84.5879V20.088H82.5019C81.5639 20.088 81.0039 20.522 81.0039 21.264Z" transform="translate(43.5742 42.2)" fill="black"/>
</svg>
