<svg width="258" height="63" viewBox="0 0 258 63" fill="none" xmlns="http://www.w3.org/2000/svg">
<path fill-rule="evenodd" clip-rule="evenodd" d="M5.29532 7.56944V6.40709H0.254883V0.103943H1.03832V5.70779H4.71954V0.103943H5.50298V5.70779H6.07876V7.56944H5.29532ZM12.1166 6.40709H7.9917V0.103943H12.1166V0.803243H8.77514V2.83499H12.0505V3.53429H8.77514V5.70779H12.1166V6.40709ZM19.523 6.40709H18.7396V3.51539H15.0583V6.40709H14.2749V0.103943H15.0583V2.81609H18.7396V0.103943H19.523V6.40709ZM24.2487 6.40709H23.4653V0.803243H21.4736V0.103943H26.2498V0.803243H24.2487V6.40709ZM28.9841 6.40709H28.2007V0.103943H30.7303C31.3407 0.103943 31.8221 0.286641 32.1745 0.652043C32.5269 1.01744 32.7031 1.46789 32.7031 2.00339C32.7031 2.5389 32.5253 2.98934 32.1698 3.35474C31.8143 3.72014 31.3344 3.90284 30.7303 3.90284H28.9841V6.40709ZM30.6357 3.20352C31.007 3.20352 31.309 3.0917 31.5419 2.86805C31.7747 2.6444 31.8911 2.35617 31.8911 2.00337C31.8911 1.65057 31.7747 1.36235 31.5419 1.1387C31.309 0.915047 31.007 0.803223 30.6357 0.803223H28.9839V3.20352H30.6357ZM43.2496 6.40709H42.4661V0.803243H38.7849V6.40709H38.0015V0.103943H43.2496V6.40709ZM46.4182 6.40709H45.6348V0.103943H48.1644C48.7748 0.103943 49.2562 0.286641 49.6086 0.652043C49.961 1.01744 50.1372 1.46789 50.1372 2.00339C50.1372 2.5389 49.9594 2.98934 49.6039 3.35474C49.2483 3.72014 48.7685 3.90284 48.1644 3.90284H46.4182V6.40709ZM48.0698 3.20352C48.4411 3.20352 48.7431 3.0917 48.9759 2.86805C49.2088 2.6444 49.3252 2.35617 49.3252 2.00337C49.3252 1.65057 49.2088 1.36235 48.9759 1.1387C48.7431 0.915047 48.4411 0.803223 48.0698 0.803223H46.418V3.20352H48.0698ZM54.9573 6.5205C54.0323 6.5205 53.2803 6.2118 52.7014 5.5944C52.1225 4.977 51.833 4.19895 51.833 3.26025C51.833 2.32155 52.1225 1.5435 52.7014 0.9261C53.2803 0.308697 54.0323 0 54.9573 0C55.8761 0 56.6265 0.308697 57.2085 0.9261C57.7906 1.5435 58.0816 2.32155 58.0816 3.26025C58.0816 4.19895 57.7906 4.977 57.2085 5.5944C56.6265 6.2118 55.8761 6.5205 54.9573 6.5205ZM54.9571 5.82118C55.6493 5.82118 56.2078 5.58021 56.6325 5.09825C57.0573 4.6163 57.2697 4.00363 57.2697 3.26023C57.2697 2.51053 57.0573 1.89628 56.6325 1.41748C56.2078 0.938677 55.6493 0.69928 54.9571 0.69928C54.2586 0.69928 53.6986 0.938677 53.2769 1.41748C52.8553 1.89628 52.6445 2.51053 52.6445 3.26023C52.6445 4.00363 52.8553 4.6163 53.2769 5.09825C53.6986 5.58021 54.2586 5.82118 54.9571 5.82118ZM63.6758 6.40709H62.8924V5.79284C61.9863 5.72984 61.272 5.47155 60.7497 5.01794C60.2275 4.56434 59.9663 3.97845 59.9663 3.26024C59.9663 2.54834 60.2275 1.9656 60.7497 1.51199C61.272 1.05839 61.9863 0.800093 62.8924 0.737093V0.103943H63.6758V0.737093C64.5757 0.800093 65.2899 1.05997 65.8185 1.51672C66.3471 1.97347 66.6114 2.55464 66.6114 3.26024C66.6114 3.97845 66.3487 4.56434 65.8232 5.01794C65.2978 5.47155 64.582 5.72984 63.6758 5.79284V6.40709ZM65.2332 4.50765C65.6108 4.18005 65.7996 3.76425 65.7996 3.26025C65.7996 2.75625 65.6108 2.34045 65.2332 2.01285C64.8557 1.68525 64.3365 1.4931 63.6758 1.4364V5.0841C64.3365 5.0274 64.8557 4.83525 65.2332 4.50765ZM61.3347 2.01285C60.9635 2.34045 60.7778 2.75625 60.7778 3.26025C60.7778 3.76425 60.965 4.18005 61.3395 4.50765C61.7139 4.83525 62.2314 5.0274 62.8922 5.0841V1.4364C62.2314 1.4931 61.7123 1.68525 61.3347 2.01285ZM72.8661 6.40709H68.7412V0.103943H72.8661V0.803243H69.5247V2.83499H72.8V3.53429H69.5247V5.70779H72.8661V6.40709ZM78.0071 6.5205C77.0884 6.5205 76.3191 6.21653 75.6993 5.60857C75.0794 5.00062 74.7695 4.21785 74.7695 3.26025C74.7695 2.30265 75.0794 1.51988 75.6993 0.911925C76.3191 0.303972 77.0884 0 78.0071 0C79.014 0 79.81 0.415796 80.3952 1.2474L79.7345 1.61595C79.552 1.34505 79.3066 1.12455 78.9982 0.95445C78.6899 0.784349 78.3595 0.6993 78.0071 0.6993C77.3149 0.6993 76.7376 0.940273 76.2751 1.42222C75.8125 1.90418 75.5813 2.51685 75.5813 3.26025C75.5813 4.00365 75.8125 4.61632 76.2751 5.09828C76.7376 5.58023 77.3149 5.8212 78.0071 5.8212C78.3595 5.8212 78.6899 5.73773 78.9982 5.57078C79.3066 5.40382 79.552 5.18175 79.7345 4.90455L80.4046 5.2731C79.7942 6.1047 78.9951 6.5205 78.0071 6.5205ZM85.3006 6.5205C84.3818 6.5205 83.6126 6.21653 82.9927 5.60857C82.3729 5.00062 82.063 4.21785 82.063 3.26025C82.063 2.30265 82.3729 1.51988 82.9927 0.911925C83.6126 0.303972 84.3818 0 85.3006 0C86.3074 0 87.1034 0.415796 87.6886 1.2474L87.0279 1.61595C86.8454 1.34505 86.6 1.12455 86.2917 0.95445C85.9833 0.784349 85.653 0.6993 85.3006 0.6993C84.6084 0.6993 84.031 0.940273 83.5685 1.42222C83.106 1.90418 82.8747 2.51685 82.8747 3.26025C82.8747 4.00365 83.106 4.61632 83.5685 5.09828C84.031 5.58023 84.6084 5.8212 85.3006 5.8212C85.653 5.8212 85.9833 5.73773 86.2917 5.57078C86.6 5.40382 86.8454 5.18175 87.0279 4.90455L87.6981 5.2731C87.0877 6.1047 86.2885 6.5205 85.3006 6.5205ZM90.366 6.40709H89.6108V0.103943H90.3943V5.02739L94.0189 0.103943H94.8212V6.40709H94.0377V1.37969L90.366 6.40709ZM100.075 6.5205C99.1505 6.5205 98.3985 6.2118 97.8196 5.5944C97.2406 4.977 96.9512 4.19895 96.9512 3.26025C96.9512 2.32155 97.2406 1.5435 97.8196 0.9261C98.3985 0.308697 99.1505 0 100.075 0C100.994 0 101.745 0.308697 102.327 0.9261C102.909 1.5435 103.2 2.32155 103.2 3.26025C103.2 4.19895 102.909 4.977 102.327 5.5944C101.745 6.2118 100.994 6.5205 100.075 6.5205ZM100.076 5.82118C100.768 5.82118 101.326 5.58021 101.751 5.09825C102.176 4.6163 102.388 4.00363 102.388 3.26023C102.388 2.51053 102.176 1.89628 101.751 1.41748C101.326 0.938677 100.768 0.69928 100.076 0.69928C99.3773 0.69928 98.8172 0.938677 98.3956 1.41748C97.974 1.89628 97.7632 2.51053 97.7632 3.26023C97.7632 4.00363 97.974 4.6163 98.3956 5.09825C98.8172 5.58021 99.3773 5.82118 100.076 5.82118ZM110.587 6.40709H109.804V3.51539H106.123V6.40709H105.339V0.103943H106.123V2.81609H109.804V0.103943H110.587V6.40709ZM118.362 6.40709H117.466L116.909 5.00849H113.775L113.218 6.40709H112.321L114.851 0.103943H115.823L118.362 6.40709ZM116.673 4.30918L115.342 0.916626L114.001 4.30918H116.673ZM119.662 6.52049V5.82119C119.932 5.82119 120.152 5.75819 120.322 5.63219C120.492 5.50619 120.643 5.25577 120.775 4.88092C120.908 4.50607 121.018 3.969 121.106 3.26969L121.493 0.103943H125.344V6.40709H124.56V0.803243H122.191L121.88 3.32639C121.798 4.0005 121.689 4.55489 121.554 4.98959C121.419 5.4243 121.252 5.75032 121.054 5.96767C120.856 6.18502 120.651 6.33149 120.44 6.40709C120.23 6.48269 119.97 6.52049 119.662 6.52049ZM127.729 0.103943H128.512V2.60819H130.259C130.863 2.60819 131.343 2.79089 131.698 3.15629C132.054 3.52169 132.231 3.97214 132.231 4.50764C132.231 5.04315 132.055 5.49359 131.703 5.85899C131.35 6.22439 130.869 6.40709 130.259 6.40709H127.729V0.103943ZM130.164 3.3075H128.512V5.7078H130.164C130.535 5.7078 130.837 5.59597 131.07 5.37232C131.303 5.14867 131.419 4.86045 131.419 4.50765C131.419 4.15484 131.303 3.86662 131.07 3.64297C130.837 3.41932 130.535 3.3075 130.164 3.3075ZM139.43 6.40709H138.647V3.51539H134.966V6.40709H134.182V0.103943H134.966V2.81609H138.647V0.103943H139.43V6.40709ZM144.684 6.5205C143.759 6.5205 143.007 6.2118 142.428 5.5944C141.85 4.977 141.56 4.19895 141.56 3.26025C141.56 2.32155 141.85 1.5435 142.428 0.9261C143.007 0.308697 143.759 0 144.684 0C145.603 0 146.354 0.308697 146.936 0.9261C147.518 1.5435 147.809 2.32155 147.809 3.26025C147.809 4.19895 147.518 4.977 146.936 5.5944C146.354 6.2118 145.603 6.5205 144.684 6.5205ZM144.685 5.82118C145.377 5.82118 145.935 5.58021 146.36 5.09825C146.785 4.6163 146.997 4.00363 146.997 3.26023C146.997 2.51053 146.785 1.89628 146.36 1.41748C145.935 0.938677 145.377 0.69928 144.685 0.69928C143.986 0.69928 143.426 0.938677 143.004 1.41748C142.583 1.89628 142.372 2.51053 142.372 3.26023C142.372 4.00363 142.583 4.6163 143.004 5.09825C143.426 5.58021 143.986 5.82118 144.685 5.82118ZM150.732 6.40709H149.948V0.103943H154.073V0.803243H150.732V6.40709ZM158.922 6.5205C157.997 6.5205 157.245 6.2118 156.666 5.5944C156.087 4.977 155.797 4.19895 155.797 3.26025C155.797 2.32155 156.087 1.5435 156.666 0.9261C157.245 0.308697 157.997 0 158.922 0C159.84 0 160.591 0.308697 161.173 0.9261C161.755 1.5435 162.046 2.32155 162.046 3.26025C162.046 4.19895 161.755 4.977 161.173 5.5944C160.591 6.2118 159.84 6.5205 158.922 6.5205ZM158.922 5.82118C159.614 5.82118 160.173 5.58021 160.597 5.09825C161.022 4.6163 161.234 4.00363 161.234 3.26023C161.234 2.51053 161.022 1.89628 160.597 1.41748C160.173 0.938677 159.614 0.69928 158.922 0.69928C158.223 0.69928 157.663 0.938677 157.242 1.41748C156.82 1.89628 156.609 2.51053 156.609 3.26023C156.609 4.00363 156.82 4.6163 157.242 5.09825C157.663 5.58021 158.223 5.82118 158.922 5.82118ZM3.12432 18.0705C2.19929 18.0705 1.44732 17.7618 0.86839 17.1444C0.289461 16.527 0 15.7489 0 14.8102C0 13.8715 0.289461 13.0935 0.86839 12.4761C1.44732 11.8587 2.19929 11.55 3.12432 11.55C4.04305 11.55 4.79345 11.8587 5.37552 12.4761C5.9576 13.0935 6.24863 13.8715 6.24863 14.8102C6.24863 15.7489 5.9576 16.527 5.37552 17.1444C4.79345 17.7618 4.04305 18.0705 3.12432 18.0705ZM3.12408 17.3712C3.81628 17.3712 4.37475 17.1303 4.79951 16.6483C5.22427 16.1664 5.43665 15.5537 5.43665 14.8103C5.43665 14.0606 5.22427 13.4463 4.79951 12.9675C4.37475 12.4887 3.81628 12.2493 3.12408 12.2493C2.42559 12.2493 1.86555 12.4887 1.44394 12.9675C1.02233 13.4463 0.811523 14.0606 0.811523 14.8103C0.811523 15.5537 1.02233 16.1664 1.44394 16.6483C1.86555 17.1303 2.42559 17.3712 3.12408 17.3712ZM8.38818 11.6539H12.4753V12.3532H9.17162V14.1582H10.9178C11.5219 14.1582 12.0018 14.3409 12.3573 14.7063C12.7128 15.0717 12.8906 15.5221 12.8906 16.0576C12.8906 16.5931 12.7144 17.0436 12.362 17.409C12.0096 17.7744 11.5282 17.9571 10.9178 17.9571H8.38818V11.6539ZM10.8232 14.8575H9.17139V17.2578H10.8232C11.1945 17.2578 11.4965 17.146 11.7294 16.9223C11.9622 16.6987 12.0786 16.4104 12.0786 16.0576C12.0786 15.7048 11.9622 15.4166 11.7294 15.193C11.4965 14.9693 11.1945 14.8575 10.8232 14.8575ZM15.6247 17.9571H14.8413V11.6539H17.371C17.9814 11.6539 18.4627 11.8366 18.8151 12.202C19.1675 12.5674 19.3437 13.0179 19.3437 13.5534C19.3437 14.0889 19.166 14.5393 18.8104 14.9047C18.4549 15.2701 17.9751 15.4528 17.371 15.4528H15.6247V17.9571ZM17.2763 14.7536C17.6476 14.7536 17.9497 14.6417 18.1825 14.4181C18.4153 14.1944 18.5317 13.9062 18.5317 13.5534C18.5317 13.2006 18.4153 12.9124 18.1825 12.6887C17.9497 12.4651 17.6476 12.3533 17.2763 12.3533H15.6245V14.7536H17.2763ZM26.684 17.9571H25.7873L25.2304 16.5585H22.0967L21.5398 17.9571H20.6431L23.1727 11.6539H24.1449L26.684 17.9571ZM24.9945 15.8592L23.6636 12.4667L22.3232 15.8592H24.9945ZM30.3243 18.0705C29.7957 18.0705 29.3206 17.9728 28.899 17.7775C28.4774 17.5822 28.1627 17.3334 27.9551 17.031L28.4176 16.5301C28.6064 16.7821 28.8722 16.9853 29.2152 17.1397C29.5581 17.294 29.9215 17.3712 30.3054 17.3712C30.7962 17.3712 31.1832 17.2657 31.4664 17.0546C31.7496 16.8436 31.8912 16.5553 31.8912 16.1899C31.8912 15.8119 31.7448 15.5316 31.4522 15.3489C31.1596 15.1662 30.7616 15.0748 30.2582 15.0748H28.9745V14.3755H30.2582C30.705 14.3755 31.0715 14.2889 31.3578 14.1157C31.6442 13.9424 31.7873 13.6826 31.7873 13.336C31.7873 12.9958 31.6442 12.7312 31.3578 12.5422C31.0715 12.3532 30.7113 12.2587 30.2771 12.2587C29.566 12.2587 28.9713 12.5139 28.4931 13.0242L28.0589 12.5328C28.3106 12.243 28.6331 12.0083 29.0264 11.8288C29.4197 11.6492 29.8555 11.5594 30.3337 11.5594C30.9756 11.5594 31.512 11.7106 31.9431 12.013C32.3741 12.3154 32.5896 12.7249 32.5896 13.2415C32.5896 13.6574 32.4496 13.9897 32.1696 14.2385C31.8896 14.4874 31.5765 14.6433 31.2304 14.7063C31.5765 14.7378 31.9053 14.889 32.2168 15.1599C32.5283 15.4308 32.684 15.7962 32.684 16.2561C32.684 16.7853 32.4669 17.22 32.0327 17.5602C31.5985 17.9004 31.0291 18.0705 30.3243 18.0705ZM37.7122 18.0705C36.7872 18.0705 36.0352 17.7618 35.4563 17.1444C34.8773 16.527 34.5879 15.7489 34.5879 14.8102C34.5879 13.8715 34.8773 13.0935 35.4563 12.4761C36.0352 11.8587 36.7872 11.55 37.7122 11.55C38.6309 11.55 39.3813 11.8587 39.9634 12.4761C40.5455 13.0935 40.8365 13.8715 40.8365 14.8102C40.8365 15.7489 40.5455 16.527 39.9634 17.1444C39.3813 17.7618 38.6309 18.0705 37.7122 18.0705ZM37.712 17.3712C38.4042 17.3712 38.9626 17.1303 39.3874 16.6483C39.8122 16.1664 40.0245 15.5537 40.0245 14.8103C40.0245 14.0606 39.8122 13.4463 39.3874 12.9675C38.9626 12.4887 38.4042 12.2493 37.712 12.2493C37.0135 12.2493 36.4534 12.4887 36.0318 12.9675C35.6102 13.4463 35.3994 14.0606 35.3994 14.8103C35.3994 15.5537 35.6102 16.1664 36.0318 16.6483C36.4534 17.1303 37.0135 17.3712 37.712 17.3712ZM45.8455 17.9571H42.9761V11.6539H45.7795C46.3206 11.6539 46.7501 11.802 47.0679 12.0981C47.3857 12.3942 47.5446 12.7816 47.5446 13.2604C47.5446 13.6384 47.4376 13.9582 47.2236 14.2196C47.0097 14.4811 46.7485 14.6433 46.4402 14.7063C46.7737 14.7567 47.0616 14.9331 47.3039 15.2355C47.5461 15.5379 47.6673 15.8781 47.6673 16.2561C47.6673 16.7664 47.5052 17.1775 47.1812 17.4893C46.8571 17.8012 46.4119 17.9571 45.8455 17.9571ZM45.6471 14.385C45.9932 14.385 46.2606 14.2905 46.4494 14.1015C46.6382 13.9125 46.7326 13.67 46.7326 13.3739C46.7326 13.0778 46.6366 12.8336 46.4447 12.6415C46.2528 12.4493 45.9869 12.3533 45.6471 12.3533H43.7593V14.385H45.6471ZM45.6848 17.2578C46.0498 17.2578 46.3361 17.1601 46.5438 16.9648C46.7514 16.7695 46.8553 16.5049 46.8553 16.171C46.8553 15.8623 46.753 15.604 46.5485 15.3961C46.344 15.1882 46.0561 15.0843 45.6848 15.0843H43.7593V17.2578H45.6848ZM55.2153 17.9571H54.3186L53.7617 16.5585H50.6279L50.071 17.9571H49.1743L51.704 11.6539H52.6762L55.2153 17.9571ZM53.5257 15.8592L52.1948 12.4667L50.8545 15.8592H53.5257ZM62.1968 17.9571H61.4134V15.0654H57.7322V17.9571H56.9487V11.6539H57.7322V14.3661H61.4134V11.6539H62.1968V17.9571ZM65.3372 17.9571H64.582V11.6539H65.3655V16.5774L68.9901 11.6539H69.7924V17.9571H69.0089V12.9297L65.3372 17.9571ZM72.7999 17.9571H71.8843L73.5833 15.3867C73.1239 15.3489 72.7354 15.1693 72.4176 14.848C72.0998 14.5267 71.9409 14.0952 71.9409 13.5534C71.9409 12.9801 72.125 12.5202 72.4931 12.1737C72.8612 11.8272 73.3379 11.6539 73.9231 11.6539H76.4528V17.9571H75.6693V15.4528H74.4045L72.7999 17.9571ZM74.0083 14.763H75.6696V12.3533H74.0083C73.637 12.3533 73.335 12.4651 73.1022 12.6887C72.8693 12.9124 72.7529 13.2006 72.7529 13.5534C72.7529 13.9062 72.8709 14.196 73.1069 14.4228C73.3429 14.6496 73.6433 14.763 74.0083 14.763Z" transform="translate(45.5791 43.9929)" fill="#333333"/>
<path fill-rule="evenodd" clip-rule="evenodd" d="M5.77515 25.2V4.45867H0V0H16.7805V4.45867H11.0046V25.2H5.77515Z" transform="translate(40.9023 6.29999)" fill="#A12339"/>
<path fill-rule="evenodd" clip-rule="evenodd" d="M7.93999 3.61591C5.45402 3.61591 4.56296 5.9648 4.48926 7.82866H11.4276C11.3531 5.9648 10.5372 3.61591 7.93999 3.61591ZM0 9.43186C0 4.21275 3.04242 0 8.01436 0C12.9487 0 15.7317 4.02615 15.7317 9.61773V10.8855H4.48919C4.67492 13.3454 6.12169 15.2841 8.83025 15.2841C10.092 15.2841 11.7245 14.651 12.7261 13.5321L14.7669 16.2157C13.1713 17.9684 10.7598 18.9 8.3475 18.9C3.30185 18.9 0 15.0982 0 9.43186Z" transform="translate(55.5854 12.6)" fill="#A12339"/>
<path fill-rule="evenodd" clip-rule="evenodd" d="M11.7146 17.85L8.38986 11.9L5.02593 17.85H0L5.45141 8.75872L0.270343 0H5.33544L8.38986 5.61745L11.4059 0H16.471L11.2899 8.75872L16.7805 17.85H11.7146Z" transform="translate(70.2681 13.65)" fill="#A12339"/>
<path fill-rule="evenodd" clip-rule="evenodd" d="M0 17.85V0H4.49476V6.65255H10.1502V0H14.6829V17.85H10.1502V10.5331H4.49476V17.85H0Z" transform="translate(88.0977 13.65)" fill="#A12339"/>
<path fill-rule="evenodd" clip-rule="evenodd" d="M12.0193 9.43186C12.0193 6.48686 10.9056 3.95135 8.37165 3.95135C5.9132 3.95135 4.80029 6.48686 4.80029 9.43186C4.80029 12.4139 5.9132 14.9494 8.37165 14.9494C10.9056 14.9494 12.0193 12.4139 12.0193 9.43186ZM0 9.43186C0 4.39936 2.91841 0 8.37156 0C13.901 0 16.7805 4.39936 16.7805 9.43186C16.7805 14.5014 13.901 18.9 8.37156 18.9C2.91841 18.9 0 14.5014 0 9.43186Z" transform="translate(104.878 12.6)" fill="#A12339"/>
<path fill-rule="evenodd" clip-rule="evenodd" d="M13.677 25.2V4.45867H5.16206V25.2H0V0H18.878V25.2H13.677Z" transform="translate(123.756 6.29999)" fill="#A12339"/>
<path fill-rule="evenodd" clip-rule="evenodd" d="M11.0985 9.78107C11.0985 6.53352 9.90345 4.09766 7.58607 4.09766C6.39102 4.09766 5.08239 5.02531 4.48486 6.26321V13.2989C5.08239 14.4977 6.39102 15.5029 7.58607 15.5029C9.90345 15.5029 11.0985 13.067 11.0985 9.78107ZM4.48481 16.7784V26.25H0V0.463827H4.48481V2.82213C5.60564 0.96605 7.28762 0 9.0431 0C13.1167 0 15.7317 3.67299 15.7317 9.78107C15.7317 15.85 13.1167 19.5998 9.0431 19.5998C7.324 19.5998 5.60564 18.7113 4.48481 16.7784Z" transform="translate(144.732 12.6)" fill="#A12339"/>
<path fill-rule="evenodd" clip-rule="evenodd" d="M12.0177 9.43186C12.0177 6.48686 10.9049 3.95135 8.37023 3.95135C5.91342 3.95135 4.7998 6.48686 4.7998 9.43186C4.7998 12.4139 5.91342 14.9494 8.37023 14.9494C10.9049 14.9494 12.0177 12.4139 12.0177 9.43186ZM0 9.43186C0 4.39936 2.91828 0 8.37041 0C13.8996 0 16.7805 4.39936 16.7805 9.43186C16.7805 14.5014 13.8996 18.9 8.37041 18.9C2.91828 18.9 0 14.5014 0 9.43186Z" transform="translate(162.561 12.6)" fill="#A12339"/>
<path fill-rule="evenodd" clip-rule="evenodd" d="M11.5366 3.88126H4.43732V17.85H0V0H11.5366V3.88126Z" transform="translate(180.39 13.65)" fill="#A12339"/>
<path fill-rule="evenodd" clip-rule="evenodd" d="M11.0985 9.78107C11.0985 6.53352 9.90198 4.09766 7.58535 4.09766C6.38955 4.09766 5.08167 5.02531 4.4834 6.26321V13.2989C5.08167 14.4977 6.38955 15.5029 7.58535 15.5029C9.90198 15.5029 11.0985 13.067 11.0985 9.78107ZM4.48332 16.7784V26.25H0V0.463827H4.48332V2.82213C5.60489 0.96605 7.28688 0 9.0431 0C13.1152 0 15.7317 3.67299 15.7317 9.78107C15.7317 15.85 13.1152 19.5998 9.0431 19.5998C7.324 19.5998 5.60489 18.7113 4.48332 16.7784Z" transform="translate(194.024 12.6)" fill="#A12339"/>
<path fill-rule="evenodd" clip-rule="evenodd" d="M7.93999 3.61591C5.45402 3.61591 4.5637 5.9648 4.48926 7.82866H11.4276C11.3531 5.9648 10.5372 3.61591 7.93999 3.61591ZM0 9.43186C0 4.21275 3.04242 0 8.01436 0C12.948 0 15.7317 4.02615 15.7317 9.61773V10.8855H4.48919C4.67492 13.3454 6.12243 15.2841 8.83098 15.2841C10.092 15.2841 11.7245 14.651 12.7261 13.5321L14.7669 16.2157C13.1713 17.9684 10.7598 18.9 8.3475 18.9C3.30259 18.9 0 15.0982 0 9.43186Z" transform="translate(211.854 12.6)" fill="#A12339"/>
<path fill-rule="evenodd" clip-rule="evenodd" d="M0 9.43186C0 3.95135 3.44479 0 8.6528 0C11.6286 0 13.5863 1.15519 14.6829 2.42368L12.3333 5.51753C11.4723 4.51044 10.4534 3.95135 9.16147 3.95135C6.45946 3.95135 4.8549 6.30025 4.8549 9.43186C4.8549 12.5627 6.45946 14.9494 9.16147 14.9494C10.4534 14.9494 11.4723 14.3896 12.3333 13.3832L14.6829 16.4771C13.5863 17.7448 11.6286 18.9 8.6528 18.9C3.44479 18.9 0 14.9494 0 9.43186Z" transform="translate(228.634 12.6)" fill="#A12339"/>
<mask id="mask0" mask-type="alpha" maskUnits="userSpaceOnUse" x="0" y="6" width="258" height="26">
<path fill-rule="evenodd" clip-rule="evenodd" d="M0 0H257.559V25.3095H0V0Z" transform="translate(0.0454102 6.64777)" fill="white"/>
</mask>
<g mask="url(#mask0)">
<path fill-rule="evenodd" clip-rule="evenodd" d="M0 9.73538C0 4.07851 3.36159 0 8.44191 0C11.3459 0 13.2559 1.19237 14.3251 2.50168L12.0334 5.69508C11.1926 4.65558 10.2001 4.07851 8.93894 4.07851C6.30355 4.07851 4.73734 6.50299 4.73734 9.73538C4.73734 12.967 6.30355 15.4305 8.93894 15.4305C10.2001 15.4305 11.1926 14.8526 12.0334 13.8139L14.3251 17.0073C13.2559 18.3158 11.3459 19.5082 8.44191 19.5082C3.36159 19.5082 0 15.4305 0 9.73538Z" transform="translate(243.28 12.4491)" fill="#A12339"/>
</g>
<path fill-rule="evenodd" clip-rule="evenodd" d="M16.1531 4.1604L13.9916 0.406433L9.07624 8.91673L0 24.6484H6.08671L16.1312 6.98023C16.5482 6.26598 16.5542 4.89208 16.1531 4.1604ZM14.2267 0L14.2002 0.0462516H14.2017L14.2267 0Z" transform="translate(0 7.16901)" fill="#A12339"/>
<path fill-rule="evenodd" clip-rule="evenodd" d="M0 11.1504H12.8255L6.40363 0L0 11.1504Z" transform="translate(15.5469 20.6669)" fill="#A12339"/>
<path fill-rule="evenodd" clip-rule="evenodd" d="M1.90456 0.934131C1.90229 2.76979 1.3526 4.65473 0.109179 7.05906C0.109179 7.05906 0.0553475 7.15611 0 7.25317C0.169075 7.5466 5.57873 16.9395 7.35743 20.0247H13.3911L1.85149 0L1.90456 0.934131Z" transform="translate(22.8862 11.7927)" fill="#A12339"/>
<path fill-rule="evenodd" clip-rule="evenodd" d="M13.8892 17.5225C14.7141 15.9614 15.4397 14.1674 15.4404 12.3598C15.4412 10.4081 15.0098 8.47542 14.1705 6.83387L10.347 0L9.44547 1.56194L9.44775 1.56042L7.12694 5.57673L8.9663 8.84544L9.64563 10.0563C10.3636 11.3294 10.3598 13.413 9.63123 14.6838L9.53266 14.8513L4.06463 24.3685L0 31.4511H5.91991C5.91991 31.4511 13.4972 18.2269 13.6458 17.9638C13.7914 17.7038 13.8892 17.5225 13.8892 17.5225Z" transform="translate(7.80713 0.366211)" fill="#A12339"/>
</svg>
