<svg width="417" height="115" viewBox="0 0 417 115" fill="none" xmlns="http://www.w3.org/2000/svg">
<path fill-rule="evenodd" clip-rule="evenodd" d="M9.33425 40.6126V7.18564H0V0H27.122V7.18564H17.7864V40.6126H9.33425Z" transform="translate(66.1099 10.1533)" fill="#A12339"/>
<path fill-rule="evenodd" clip-rule="evenodd" d="M12.8332 5.82764C8.81518 5.82764 7.37498 9.61314 7.25586 12.617H18.4701C18.3498 9.61314 17.0311 5.82764 12.8332 5.82764ZM0 15.2005C0 6.78932 4.9174 0 12.9534 0C20.9287 0 25.4268 6.48858 25.4268 15.5V17.5432H7.25579C7.55598 21.5077 9.89437 24.632 14.2721 24.632C16.3115 24.632 18.9501 23.6117 20.569 21.8084L23.8675 26.1333C21.2885 28.9581 17.3908 30.4595 13.4919 30.4595C5.33672 30.4595 0 24.3325 0 15.2005Z" transform="translate(89.8413 20.3062)" fill="#A12339"/>
<path fill-rule="evenodd" clip-rule="evenodd" d="M18.9341 28.7673L13.5604 19.1782L8.1233 28.7673H0L8.811 14.1157L0.43695 0H8.62356L13.5604 9.05314L18.4351 0H26.6217L18.2476 14.1157L27.122 28.7673H18.9341Z" transform="translate(113.573 21.9985)" fill="#A12339"/>
<path fill-rule="evenodd" clip-rule="evenodd" d="M0 28.7673V0H7.26478V10.7213H16.4056V0H23.7317V28.7673H16.4056V16.9752H7.26478V28.7673H0Z" transform="translate(142.39 21.9985)" fill="#A12339"/>
<path fill-rule="evenodd" clip-rule="evenodd" d="M19.4262 15.2006C19.4262 10.4544 17.6262 6.36816 13.5306 6.36816C9.55706 6.36816 7.7583 10.4544 7.7583 15.2006C7.7583 20.0065 9.55706 24.0927 13.5306 24.0927C17.6262 24.0927 19.4262 20.0065 19.4262 15.2006ZM0 15.2005C0 7.09006 4.71697 0 13.5308 0C22.4679 0 27.122 7.09006 27.122 15.2005C27.122 23.3706 22.4679 30.4595 13.5308 30.4595C4.71697 30.4595 0 23.3706 0 15.2005Z" transform="translate(169.512 20.3062)" fill="#A12339"/>
<path fill-rule="evenodd" clip-rule="evenodd" d="M22.1058 40.6126V7.18564H8.34332V40.6126H0V0H30.5122V40.6126H22.1058Z" transform="translate(200.024 10.1533)" fill="#A12339"/>
<path fill-rule="evenodd" clip-rule="evenodd" d="M17.938 15.7635C17.938 10.5297 16.0065 6.604 12.261 6.604C10.3294 6.604 8.21431 8.09902 7.24854 10.094V21.4329C8.21431 23.3648 10.3294 24.9848 12.261 24.9848C16.0065 24.9848 17.938 21.0591 17.938 15.7635ZM7.2487 27.0403V42.3048H0V0.747509H7.2487V4.54817C9.06027 1.5569 11.7788 0 14.6162 0C21.2002 0 25.4268 5.91943 25.4268 15.7633C25.4268 25.544 21.2002 31.5872 14.6162 31.5872C11.8376 31.5872 9.06027 30.1553 7.2487 27.0403Z" transform="translate(233.927 20.3062)" fill="#A12339"/>
<path fill-rule="evenodd" clip-rule="evenodd" d="M19.4244 15.2006C19.4244 10.4544 17.6258 6.36816 13.5291 6.36816C9.55821 6.36816 7.7583 10.4544 7.7583 15.2006C7.7583 20.0065 9.55821 24.0927 13.5291 24.0927C17.6258 24.0927 19.4244 20.0065 19.4244 15.2006ZM0 15.2005C0 7.09006 4.71675 0 13.5289 0C22.4656 0 27.122 7.09006 27.122 15.2005C27.122 23.3706 22.4656 30.4595 13.5289 30.4595C4.71675 30.4595 0 23.3706 0 15.2005Z" transform="translate(262.744 20.3062)" fill="#A12339"/>
<path fill-rule="evenodd" clip-rule="evenodd" d="M18.6463 6.25509H7.17194V28.7673H0V0H18.6463V6.25509Z" transform="translate(291.561 21.9985)" fill="#A12339"/>
<path fill-rule="evenodd" clip-rule="evenodd" d="M17.938 15.7635C17.938 10.5297 16.004 6.604 12.2597 6.604C10.327 6.604 8.21307 8.09902 7.24609 10.094V21.4329C8.21307 23.3648 10.327 24.9848 12.2597 24.9848C16.004 24.9848 17.938 21.0591 17.938 15.7635ZM7.2463 27.0403V42.3048H0V0.747509H7.2463V4.54817C9.05907 1.5569 11.7776 0 14.6162 0C21.1978 0 25.4268 5.91943 25.4268 15.7633C25.4268 25.544 21.1978 31.5872 14.6162 31.5872C11.8376 31.5872 9.05907 30.1553 7.2463 27.0403Z" transform="translate(313.598 20.3062)" fill="#A12339"/>
<path fill-rule="evenodd" clip-rule="evenodd" d="M12.8332 5.82764C8.81518 5.82764 7.37617 9.61314 7.25586 12.617H18.4701C18.3498 9.61314 17.0311 5.82764 12.8332 5.82764ZM0 15.2005C0 6.78932 4.9174 0 12.9534 0C20.9275 0 25.4268 6.48858 25.4268 15.5V17.5432H7.25579C7.55598 21.5077 9.89556 24.632 14.2733 24.632C16.3115 24.632 18.9501 23.6117 20.569 21.8084L23.8675 26.1333C21.2885 28.9581 17.3908 30.4595 13.4919 30.4595C5.33791 30.4595 0 24.3325 0 15.2005Z" transform="translate(342.415 20.3062)" fill="#A12339"/>
<path fill-rule="evenodd" clip-rule="evenodd" d="M0 15.2005C0 6.36805 5.56774 0 13.9853 0C18.795 0 21.9592 1.86172 23.7317 3.90604L19.934 8.89211C18.5424 7.26907 16.8955 6.36805 14.8075 6.36805C10.4403 6.36805 7.84688 10.1536 7.84688 15.2005C7.84688 20.2462 10.4403 24.0926 14.8075 24.0926C16.8955 24.0926 18.5424 23.1904 19.934 21.5685L23.7317 26.5546C21.9592 28.5977 18.795 30.4595 13.9853 30.4595C5.56774 30.4595 0 24.0926 0 15.2005Z" transform="translate(369.537 20.3062)" fill="#A12339"/>
<mask id="mask0" mask-type="alpha" maskUnits="userSpaceOnUse" x="0" y="10" width="417" height="42">
<path fill-rule="evenodd" clip-rule="evenodd" d="M0 0H416.287V40.7891H0V0Z" transform="translate(0.0737305 10.7139)" fill="white"/>
</mask>
<g mask="url(#mask0)">
<path fill-rule="evenodd" clip-rule="evenodd" d="M0 15.6896C0 6.57297 5.43326 0 13.6445 0C18.3382 0 21.4252 1.92163 23.1533 4.03173L19.4494 9.17826C18.0904 7.50299 16.4862 6.57297 14.4478 6.57297C10.1883 6.57297 7.65686 10.4803 7.65686 15.6896C7.65686 20.8978 10.1883 24.8679 14.4478 24.8679C16.4862 24.8679 18.0904 23.9367 19.4494 22.2626L23.1533 27.4091C21.4252 29.518 18.3382 31.4396 13.6445 31.4396C5.43326 31.4396 0 24.8679 0 15.6896Z" transform="translate(393.208 20.0635)" fill="#A12339"/>
</g>
<path fill-rule="evenodd" clip-rule="evenodd" d="M26.108 6.70472L22.6143 0.654785L14.6697 14.3701L0 39.7234H9.83782L26.0724 11.2492C26.7464 10.0981 26.7562 7.88391 26.108 6.70472ZM22.9941 0L22.9512 0.0745397H22.9536L22.9941 0Z" transform="translate(0 11.5537)" fill="#A12339"/>
<path fill-rule="evenodd" clip-rule="evenodd" d="M0 17.9702H20.7295L10.3501 0L0 17.9702Z" transform="translate(25.1279 33.3071)" fill="#A12339"/>
<path fill-rule="evenodd" clip-rule="evenodd" d="M3.0783 1.50546C3.07463 4.46383 2.18618 7.50162 0.176463 11.3765C0.176463 11.3765 0.089457 11.5329 0 11.6893C0.273273 12.1622 9.01678 27.2998 11.8917 32.272H21.6437L2.99252 0L3.0783 1.50546Z" transform="translate(36.9897 19.0054)" fill="#A12339"/>
<path fill-rule="evenodd" clip-rule="evenodd" d="M22.4488 28.2395C23.7821 25.7235 24.9548 22.8324 24.9561 19.9192C24.9573 16.7739 24.26 13.6591 22.9035 11.0135L16.7236 0L15.2665 2.51724L15.2702 2.5148L11.5191 8.98753L14.492 14.2554L15.59 16.2069C16.7505 18.2586 16.7444 21.6165 15.5668 23.6645L15.4074 23.9346L6.56958 39.2726L0 50.687H9.56823C9.56823 50.687 21.8153 29.3747 22.0555 28.9507C22.2907 28.5316 22.4488 28.2395 22.4488 28.2395Z" transform="translate(12.6182 0.590332)" fill="#A12339"/>
<path fill-rule="evenodd" clip-rule="evenodd" d="M16.0882 19.5166H14.278L14.3006 15.7938H1.15381V0H3.05455V13.9888H12.2189V0H14.1196V13.9888H16.0882V19.5166ZM17.7402 10.3786C17.7402 6.58813 20.5687 4.69287 23.1483 4.69287C27.3345 4.69287 28.8732 8.09982 28.1943 11.1683H19.5505C19.7767 13.4471 21.8359 14.3948 24.0308 14.3948C25.3658 14.3948 26.6783 14.0338 27.606 13.5148V15.2747C26.6104 15.7937 25.1848 16.0644 23.7593 16.0644C20.5461 16.0644 17.7402 14.2368 17.7402 10.3786ZM26.5876 9.58924C26.746 8.43855 26.0219 6.36279 23.2613 6.36279C21.4058 6.36279 19.6861 7.46836 19.5503 9.58924H26.5876ZM32.652 15.7939H30.8418V4.96387H32.652V9.54407H38.9426V4.96387H40.7528V15.7939H38.9426V11.2137H32.652V15.7939ZM48.6274 15.7939H46.8172V6.6335H42.812V4.96387H52.6099V6.6335H48.6274V15.7939ZM56.2982 6.76863C57.2712 5.66306 58.6062 4.69287 60.688 4.69287C63.788 4.69287 66.1187 7.12963 66.1187 10.3786C66.1187 13.6276 63.788 16.0644 60.688 16.0644C58.6062 16.0644 57.2712 15.0942 56.4792 14.1691V20.7574H54.6689V4.96362H56.2982V6.76863ZM64.3087 10.3789C64.3087 7.89705 62.589 6.36279 60.4846 6.36279C58.5386 6.36279 57.0904 7.6263 56.4795 9.02518V11.7327C57.0904 13.1316 58.5386 14.3951 60.4846 14.3951C62.589 14.3951 64.3087 12.8608 64.3087 10.3789ZM76.1657 15.7939H74.3555V4.96387H84.2665V15.7939H82.4563V6.6335H76.1657V15.7939ZM89.2444 6.76863C90.2174 5.66306 91.5525 4.69287 93.6343 4.69287C96.7343 4.69287 99.065 7.12963 99.065 10.3786C99.065 13.6276 96.7343 16.0644 93.6343 16.0644C91.5525 16.0644 90.2174 15.0942 89.4255 14.1691V20.7574H87.6152V4.96362H89.2444V6.76863ZM97.2545 10.3789C97.2545 7.89705 95.5348 6.36279 93.4304 6.36279C91.4844 6.36279 90.0362 7.6263 89.4253 9.02518V11.7327C90.0362 13.1316 91.4844 14.3951 93.4304 14.3951C95.5348 14.3951 97.2545 12.8608 97.2545 10.3789ZM100.92 10.3786C100.92 6.67838 103.772 4.69287 106.713 4.69287C109.677 4.69287 112.506 6.67838 112.506 10.3786C112.506 14.0789 109.677 16.0644 106.713 16.0644C103.772 16.0644 100.92 14.0789 100.92 10.3786ZM110.695 10.3787C110.695 7.87428 108.931 6.40771 106.713 6.40771C104.495 6.40771 102.73 7.87428 102.73 10.3787C102.73 12.8832 104.495 14.3497 106.713 14.3497C108.931 14.3497 110.695 12.8832 110.695 10.3787ZM122.508 20.7576H120.697V16.0645C117.099 15.9743 114.339 13.8083 114.339 10.3788C114.339 6.94927 117.099 4.78326 120.697 4.69301V0H122.508V4.69301C126.105 4.78326 128.866 6.94927 128.866 10.3788C128.866 13.8083 126.105 15.9743 122.508 16.0645V20.7576ZM116.149 10.3788C116.149 12.8607 117.959 14.395 120.697 14.4852V6.27246C117.959 6.36271 116.149 7.89697 116.149 10.3788ZM122.507 6.27246V14.4852C125.245 14.395 127.056 12.8607 127.056 10.3788C127.056 7.89697 125.245 6.36271 122.507 6.27246ZM130.699 10.3786C130.699 6.58813 133.527 4.69287 136.107 4.69287C140.293 4.69287 141.832 8.09982 141.153 11.1683H132.509C132.735 13.4471 134.794 14.3948 136.989 14.3948C138.324 14.3948 139.637 14.0338 140.564 13.5148V15.2747C139.569 15.7937 138.143 16.0644 136.718 16.0644C133.505 16.0644 130.699 14.2368 130.699 10.3786ZM139.546 9.58924C139.704 8.43855 138.98 6.36279 136.22 6.36279C134.364 6.36279 132.645 7.46836 132.509 9.58924H139.546ZM143.054 10.4238C143.054 6.47531 146.108 4.69287 148.937 4.69287C150.159 4.69287 151.358 4.96362 152.286 5.57281V7.33269C151.471 6.70094 150.317 6.3625 149.163 6.3625C147.059 6.3625 144.864 7.53575 144.864 10.3786C144.864 13.1538 146.991 14.3948 149.118 14.3948C150.295 14.3948 151.494 14.0563 152.399 13.5148V15.3198C151.381 15.8162 150.227 16.0644 148.869 16.0644C146.018 16.0644 143.054 14.282 143.054 10.4238ZM154.3 10.4238C154.3 6.47531 157.355 4.69287 160.183 4.69287C161.405 4.69287 162.604 4.96362 163.532 5.57281V7.33269C162.717 6.70094 161.563 6.3625 160.409 6.3625C158.305 6.3625 156.11 7.53575 156.11 10.3786C156.11 13.1538 158.237 14.3948 160.364 14.3948C161.541 14.3948 162.74 14.0563 163.645 13.5148V15.3198C162.627 15.8162 161.473 16.0644 160.115 16.0644C157.264 16.0644 154.3 14.282 154.3 10.4238ZM167.831 15.7939H166.292V4.96387H168.103V12.8833L174.755 4.96387H176.294V15.7939H174.484V7.87444L167.831 15.7939ZM178.896 10.3786C178.896 6.67838 181.747 4.69287 184.689 4.69287C187.653 4.69287 190.481 6.67838 190.481 10.3786C190.481 14.0789 187.653 16.0644 184.689 16.0644C181.747 16.0644 178.896 14.0789 178.896 10.3786ZM188.672 10.3787C188.672 7.87428 186.907 6.40771 184.689 6.40771C182.472 6.40771 180.707 7.87428 180.707 10.3787C180.707 12.8832 182.472 14.3497 184.689 14.3497C186.907 14.3497 188.672 12.8832 188.672 10.3787ZM194.894 15.7939H193.084V4.96387H194.894V9.54407H201.185V4.96387H202.995V15.7939H201.185V11.2137H194.894V15.7939ZM215.169 13.5374C215.169 14.1917 215.531 14.3722 216.006 14.3722C216.278 14.3722 216.572 14.3045 216.843 14.2143V15.6808C216.413 15.8388 215.938 15.929 215.486 15.929C214.603 15.929 213.811 15.568 213.495 14.6204C212.408 15.5229 211.028 16.0644 209.263 16.0644C207.34 16.0644 205.439 15.0491 205.439 12.7703C205.439 9.97251 208.019 9.11513 210.349 9.11513C211.3 9.11513 212.454 9.25051 213.359 9.45357V9.07001C213.359 7.4455 212.25 6.3625 210.259 6.3625C208.584 6.3625 207.249 6.76863 206.299 7.17475V5.41487C207.159 5.12156 208.652 4.69287 210.44 4.69287C213.336 4.69287 215.169 6.27225 215.169 9.29563V13.5374ZM207.294 12.6801C207.294 13.9436 208.448 14.5077 209.648 14.5077C211.028 14.5077 212.408 13.9436 213.359 12.9283V10.9428C212.589 10.7849 211.481 10.627 210.598 10.627C209.014 10.627 207.294 11.1008 207.294 12.6801ZM222.636 6.6335C222.274 12.1839 221.505 15.9744 218.699 15.9744C218.291 15.9744 217.861 15.9067 217.386 15.7262V14.3048C217.635 14.395 217.884 14.4401 218.11 14.4401C220.034 14.4401 220.667 10.785 220.871 4.96387H228.859V15.7939H227.048V6.6335H222.636ZM237.367 15.7939H232.208V4.96387H234.018V8.75438H237.367C240.014 8.75438 241.575 10.2661 241.575 12.2741C241.575 14.2822 240.014 15.7939 237.367 15.7939ZM234.018 10.3789V14.1694H237.14C238.724 14.1694 239.742 13.5602 239.742 12.2742C239.742 10.9881 238.724 10.3789 237.14 10.3789H234.018ZM245.716 15.7939H243.906V4.96387H245.716V9.54407H252.007V4.96387H253.817V15.7939H252.007V11.2137H245.716V15.7939ZM256.419 10.3786C256.419 6.67838 259.271 4.69287 262.212 4.69287C265.176 4.69287 268.005 6.67838 268.005 10.3786C268.005 14.0789 265.176 16.0644 262.212 16.0644C259.271 16.0644 256.419 14.0789 256.419 10.3786ZM266.195 10.3787C266.195 7.87428 264.43 6.40771 262.212 6.40771C259.994 6.40771 258.229 7.87428 258.229 10.3787C258.229 12.8832 259.994 14.3497 262.212 14.3497C264.43 14.3497 266.195 12.8832 266.195 10.3787ZM272.417 15.7939H270.607V4.96387H278.549V6.6335H272.417V15.7939ZM279.862 10.3786C279.862 6.67838 282.713 4.69287 285.655 4.69287C288.619 4.69287 291.447 6.67838 291.447 10.3786C291.447 14.0789 288.619 16.0644 285.655 16.0644C282.713 16.0644 279.862 14.0789 279.862 10.3786ZM289.637 10.3787C289.637 7.87428 287.872 6.40771 285.655 6.40771C283.437 6.40771 281.672 7.87428 281.672 10.3787C281.672 12.8832 283.437 14.3497 285.655 14.3497C287.872 14.3497 289.637 12.8832 289.637 10.3787ZM0 36.1648C0 32.4645 2.85112 30.479 5.79274 30.479C8.757 30.479 11.5855 32.4645 11.5855 36.1648C11.5855 39.865 8.757 41.8505 5.79274 41.8505C2.85112 41.8505 0 39.865 0 36.1648ZM9.77508 36.1644C9.77508 33.6599 8.01011 32.1934 5.79257 32.1934C3.57504 32.1934 1.81006 33.6599 1.81006 36.1644C1.81006 38.6688 3.57504 40.1354 5.79257 40.1354C8.01011 40.1354 9.77508 38.6688 9.77508 36.1644ZM24.8003 36.4805C24.8003 39.8649 22.5375 41.8504 19.2564 41.8504C15.9754 41.8504 13.6221 39.6167 13.6221 35.5104C13.6221 31.8778 15.025 29.3733 16.971 28.155C20.0937 26.2371 22.2433 27.0494 23.8273 25.5151V27.4104C22.2659 28.516 20.5236 28.0421 18.0345 29.4861C16.5184 30.3887 15.9075 31.8552 15.4549 33.2315C16.2243 32.0357 17.763 31.2009 19.4601 31.2009C22.2886 31.2009 24.8003 33.2541 24.8003 36.4805ZM15.4321 36.5255C15.4321 38.5787 16.9256 40.1355 19.211 40.1355C21.5869 40.1355 22.9898 38.5787 22.9898 36.5255C22.9898 34.4723 21.5869 32.9155 19.211 32.9155C16.9482 32.9155 15.4321 34.698 15.4321 36.5255ZM29.054 32.5548C30.027 31.4492 31.3621 30.479 33.4438 30.479C36.5438 30.479 38.8745 32.9158 38.8745 36.1648C38.8745 39.4138 36.5438 41.8505 33.4438 41.8505C31.3621 41.8505 30.027 40.8803 29.235 39.9553V46.5435H27.4248V30.7498H29.054V32.5548ZM37.0646 36.1646C37.0646 33.6827 35.3449 32.1484 33.2405 32.1484C31.2945 32.1484 29.8463 33.4119 29.2354 34.8108V37.5183C29.8463 38.9172 31.2945 40.1807 33.2405 40.1807C35.3449 40.1807 37.0646 38.6465 37.0646 36.1646ZM50.3018 39.3235C50.3018 39.9778 50.6638 40.1583 51.139 40.1583C51.4105 40.1583 51.7047 40.0907 51.9762 40.0004V41.467C51.5463 41.6249 51.0711 41.7152 50.6186 41.7152C49.7361 41.7152 48.9441 41.3542 48.6273 40.4065C47.5412 41.309 46.1609 41.8505 44.3959 41.8505C42.4725 41.8505 40.5718 40.8352 40.5718 38.5564C40.5718 35.7586 43.1514 34.9013 45.482 34.9013C46.4324 34.9013 47.5864 35.0366 48.4915 35.2397V34.8561C48.4915 33.2316 47.3828 32.1486 45.3915 32.1486C43.7171 32.1486 42.382 32.5548 41.4316 32.9609V31.201C42.2915 30.9077 43.7849 30.479 45.5725 30.479C48.4689 30.479 50.3018 32.0584 50.3018 35.0818V39.3235ZM42.4272 38.4658C42.4272 39.7293 43.5813 40.2934 44.7805 40.2934C46.1609 40.2934 47.5412 39.7293 48.4915 38.714V36.7285C47.7222 36.5705 46.6134 36.4126 45.7309 36.4126C44.147 36.4126 42.4272 36.8864 42.4272 38.4658ZM62.0456 38.6688C62.0456 40.722 60.1675 41.8502 57.158 41.8502C55.6193 41.8502 54.1711 41.5117 53.1528 41.0153V39.3006C54.0806 39.797 55.6193 40.1805 56.9317 40.1805C58.6514 40.1805 60.2354 39.8646 60.2354 38.4658C60.2354 37.1346 58.9229 36.9089 57.8368 36.9089H55.4609V35.2393H57.8368C59.0587 35.2393 60.0091 34.8783 60.0091 33.8404C60.0091 32.6446 58.7193 32.1257 57.0222 32.1257C55.7324 32.1257 54.3295 32.4867 53.3339 32.9831V31.2909C54.42 30.7945 55.7777 30.4561 57.2259 30.4561C60.258 30.4561 61.8193 31.697 61.8193 33.5923C61.8193 34.9009 61.0273 35.7583 59.8054 36.029C61.0273 36.3449 62.0456 37.2699 62.0456 38.6688ZM63.9692 36.1648C63.9692 32.4645 66.8204 30.479 69.762 30.479C72.7262 30.479 75.5547 32.4645 75.5547 36.1648C75.5547 39.865 72.7262 41.8505 69.762 41.8505C66.8204 41.8505 63.9692 39.865 63.9692 36.1648ZM73.7443 36.1644C73.7443 33.6599 71.9793 32.1934 69.7618 32.1934C67.5443 32.1934 65.7793 33.6599 65.7793 36.1644C65.7793 38.6688 67.5443 40.1354 69.7618 40.1354C71.9793 40.1354 73.7443 38.6688 73.7443 36.1644ZM84.2889 41.5795H78.1567V30.7495H84.1079C86.0086 30.7495 87.4568 31.7648 87.4568 33.6826C87.4568 34.8108 86.8232 35.7133 86.0086 36.0743C86.8911 36.3676 87.7962 37.225 87.7962 38.5787C87.7962 40.3612 86.6422 41.5795 84.2889 41.5795ZM79.9668 36.8867V40.0004H84.0398C85.1712 40.0004 85.9858 39.6619 85.9858 38.4661C85.9858 37.18 85.0128 36.8867 84.1077 36.8867H79.9668ZM79.9668 32.3291V35.3299H83.9267C84.8771 35.3299 85.6238 34.9689 85.6238 33.8634C85.6238 32.645 84.696 32.3291 83.9267 32.3291H79.9668ZM99.3819 39.3235C99.3819 39.9778 99.7439 40.1583 100.219 40.1583C100.491 40.1583 100.785 40.0907 101.056 40.0004V41.467C100.626 41.6249 100.151 41.7152 99.6986 41.7152C98.8162 41.7152 98.0242 41.3542 97.7074 40.4065C96.6213 41.309 95.241 41.8505 93.476 41.8505C91.5526 41.8505 89.6519 40.8352 89.6519 38.5564C89.6519 35.7586 92.2314 34.9013 94.5621 34.9013C95.5125 34.9013 96.6665 35.0366 97.5716 35.2397V34.8561C97.5716 33.2316 96.4629 32.1486 94.4716 32.1486C92.7971 32.1486 91.4621 32.5548 90.5117 32.9609V31.201C91.3716 30.9077 92.865 30.479 94.6526 30.479C97.549 30.479 99.3819 32.0584 99.3819 35.0818V39.3235ZM91.5073 38.4658C91.5073 39.7293 92.6613 40.2934 93.8606 40.2934C95.2409 40.2934 96.6212 39.7293 97.5716 38.714V36.7285C96.8023 36.5705 95.6935 36.4126 94.811 36.4126C93.227 36.4126 91.5073 36.8864 91.5073 38.4658ZM104.813 41.5795H103.002V30.7495H104.813V35.3297H111.103V30.7495H112.913V41.5795H111.103V36.9993H104.813V41.5795ZM117.801 41.5795H116.262V30.7495H118.072V38.669L124.725 30.7495H126.264V41.5795H124.454V33.6601L117.801 41.5795ZM130.699 41.5795H128.572L131.717 37.6085C130.02 37.1122 129.115 35.781 129.115 34.2693C129.115 32.374 130.54 30.7495 133.188 30.7495H138.528V41.5795H136.718V37.789H133.663L130.699 41.5795ZM130.925 34.2693C130.925 35.4651 131.83 36.1645 133.346 36.1645H136.718V32.374H133.346C131.83 32.374 130.925 33.0735 130.925 34.2693Z" transform="translate(70.4277 68.0098)" fill="black"/>
</svg>
