<svg width="201" height="49" viewBox="0 0 201 49" fill="none" xmlns="http://www.w3.org/2000/svg">
<path fill-rule="evenodd" clip-rule="evenodd" d="M4.12558 5.88755V4.9835H0.19873V0.0810547H0.809084V4.4396H3.67701V0.0810547H4.28736V4.4396H4.73594V5.88755H4.12558ZM9.43962 4.9835H6.22607V0.0810547H9.43962V0.624955H6.83643V2.2052H9.38815V2.7491H6.83643V4.4396H9.43962V4.9835ZM15.2097 4.9835H14.5994V2.7344H11.7314V4.9835H11.1211V0.0810547H11.7314V2.1905H14.5994V0.0810547H15.2097V4.9835ZM18.8915 4.9835H18.2811V0.624955H16.7295V0.0810547H20.4504V0.624955H18.8915V4.9835ZM22.5806 4.9835H21.9702V0.0810547H23.941C24.4165 0.0810547 24.7916 0.223153 25.0661 0.507355C25.3406 0.791556 25.4779 1.1419 25.4779 1.5584C25.4779 1.97491 25.3394 2.32525 25.0624 2.60945C24.7854 2.89366 24.4116 3.03575 23.941 3.03575H22.5806V4.9835ZM23.8675 2.49141C24.1567 2.49141 24.392 2.40444 24.5734 2.23049C24.7548 2.05654 24.8455 1.83236 24.8455 1.55796C24.8455 1.28356 24.7548 1.05939 24.5734 0.885437C24.392 0.711486 24.1567 0.624512 23.8675 0.624512H22.5806V2.49141H23.8675ZM33.6946 4.9835H33.0842V0.624955H30.2163V4.9835H29.606V0.0810547H33.6946V4.9835ZM36.1626 4.9835H35.5522V0.0810547H37.523C37.9986 0.0810547 38.3736 0.223153 38.6481 0.507355C38.9227 0.791556 39.0599 1.1419 39.0599 1.5584C39.0599 1.97491 38.9214 2.32525 38.6445 2.60945C38.3675 2.89366 37.9937 3.03575 37.523 3.03575H36.1626V4.9835ZM37.4495 2.49141C37.7387 2.49141 37.974 2.40444 38.1554 2.23049C38.3368 2.05654 38.4275 1.83236 38.4275 1.55796C38.4275 1.28356 38.3368 1.05939 38.1554 0.885437C37.974 0.711486 37.7387 0.624512 37.4495 0.624512H36.1626V2.49141H37.4495ZM42.8154 5.0715C42.0947 5.0715 41.5089 4.8314 41.0579 4.3512C40.6069 3.871 40.3813 3.26585 40.3813 2.53575C40.3813 1.80565 40.6069 1.2005 41.0579 0.7203C41.5089 0.240098 42.0947 0 42.8154 0C43.5312 0 44.1158 0.240098 44.5693 0.7203C45.0227 1.2005 45.2495 1.80565 45.2495 2.53575C45.2495 3.26585 45.0227 3.871 44.5693 4.3512C44.1158 4.8314 43.5312 5.0715 42.8154 5.0715ZM42.8153 4.52765C43.3546 4.52765 43.7897 4.34022 44.1206 3.96537C44.4515 3.59052 44.617 3.114 44.617 2.5358C44.617 1.95269 44.4515 1.47495 44.1206 1.10255C43.7897 0.730143 43.3546 0.543945 42.8153 0.543945C42.2711 0.543945 41.8348 0.730143 41.5064 1.10255C41.1779 1.47495 41.0137 1.95269 41.0137 2.5358C41.0137 3.114 41.1779 3.59052 41.5064 3.96537C41.8348 4.34022 42.2711 4.52765 42.8153 4.52765ZM49.6078 4.9835H48.9974V4.50575C48.2915 4.45675 47.735 4.25586 47.3281 3.90305C46.9212 3.55025 46.7178 3.09456 46.7178 2.53595C46.7178 1.98225 46.9212 1.52901 47.3281 1.1762C47.735 0.823403 48.2915 0.622505 48.9974 0.573505V0.0810547H49.6078V0.573505C50.3088 0.622505 50.8652 0.824628 51.277 1.17988C51.6889 1.53513 51.8947 1.98715 51.8947 2.53595C51.8947 3.09456 51.6901 3.55025 51.2807 3.90305C50.8714 4.25586 50.3137 4.45675 49.6078 4.50575V4.9835ZM50.8213 3.50594C51.1154 3.25114 51.2625 2.92774 51.2625 2.53574C51.2625 2.14374 51.1154 1.82034 50.8213 1.56554C50.5271 1.31074 50.1227 1.16129 49.6079 1.11719V3.95429C50.1227 3.91019 50.5271 3.76074 50.8213 3.50594ZM47.784 1.56554C47.4947 1.82034 47.3501 2.14374 47.3501 2.53574C47.3501 2.92774 47.4959 3.25114 47.7876 3.50594C48.0793 3.76074 48.4826 3.91019 48.9973 3.95429V1.11719C48.4826 1.16129 48.0781 1.31074 47.784 1.56554ZM56.7677 4.9835H53.5542V0.0810547H56.7677V0.624955H54.1646V2.2052H56.7163V2.7491H54.1646V4.4396H56.7677V4.9835ZM60.7733 5.0715C60.0575 5.0715 59.4582 4.83508 58.9753 4.36223C58.4924 3.88937 58.251 3.28055 58.251 2.53575C58.251 1.79095 58.4924 1.18213 58.9753 0.709275C59.4582 0.236423 60.0575 0 60.7733 0C61.5577 0 62.1778 0.323397 62.6338 0.9702L62.119 1.25685C61.9768 1.04615 61.7856 0.874651 61.5454 0.74235C61.3052 0.610049 61.0478 0.5439 60.7733 0.5439C60.234 0.5439 59.7842 0.731323 59.4239 1.10617C59.0636 1.48103 58.8834 1.95755 58.8834 2.53575C58.8834 3.11395 59.0636 3.59047 59.4239 3.96533C59.7842 4.34018 60.234 4.5276 60.7733 4.5276C61.0478 4.5276 61.3052 4.46268 61.5454 4.33283C61.7856 4.20297 61.9768 4.03025 62.119 3.81465L62.6411 4.1013C62.1656 4.7481 61.543 5.0715 60.7733 5.0715ZM66.4549 5.0715C65.7392 5.0715 65.1398 4.83508 64.657 4.36223C64.1741 3.88937 63.9326 3.28055 63.9326 2.53575C63.9326 1.79095 64.1741 1.18213 64.657 0.709275C65.1398 0.236423 65.7392 0 66.4549 0C67.2393 0 67.8595 0.323397 68.3154 0.9702L67.8006 1.25685C67.6585 1.04615 67.4673 0.874651 67.2271 0.74235C66.9868 0.610049 66.7295 0.5439 66.4549 0.5439C65.9156 0.5439 65.4659 0.731323 65.1055 1.10617C64.7452 1.48103 64.565 1.95755 64.565 2.53575C64.565 3.11395 64.7452 3.59047 65.1055 3.96533C65.4659 4.34018 65.9156 4.5276 66.4549 4.5276C66.7295 4.5276 66.9868 4.46268 67.2271 4.33283C67.4673 4.20297 67.6585 4.03025 67.8006 3.81465L68.3228 4.1013C67.8472 4.7481 67.2246 5.0715 66.4549 5.0715ZM70.4013 4.9835H69.813V0.0810547H70.4233V3.9104L73.2471 0.0810547H73.8722V4.9835H73.2619V1.0733L70.4013 4.9835ZM77.9658 5.0715C77.2451 5.0715 76.6593 4.8314 76.2083 4.3512C75.7572 3.871 75.5317 3.26585 75.5317 2.53575C75.5317 1.80565 75.7572 1.2005 76.2083 0.7203C76.6593 0.240098 77.2451 0 77.9658 0C78.6816 0 79.2662 0.240098 79.7197 0.7203C80.1731 1.2005 80.3999 1.80565 80.3999 2.53575C80.3999 3.26585 80.1731 3.871 79.7197 4.3512C79.2662 4.8314 78.6816 5.0715 77.9658 5.0715ZM77.9657 4.52765C78.505 4.52765 78.9401 4.34022 79.271 3.96537C79.6019 3.59052 79.7674 3.114 79.7674 2.5358C79.7674 1.95269 79.6019 1.47495 79.271 1.10255C78.9401 0.730143 78.505 0.543945 77.9657 0.543945C77.4215 0.543945 76.9852 0.730143 76.6568 1.10255C76.3283 1.47495 76.1641 1.95269 76.1641 2.5358C76.1641 3.114 76.3283 3.59052 76.6568 3.96537C76.9852 4.34022 77.4215 4.52765 77.9657 4.52765ZM86.1555 4.9835H85.5452V2.7344H82.6772V4.9835H82.0669V0.0810547H82.6772V2.1905H85.5452V0.0810547H86.1555V4.9835ZM92.2122 4.9835H91.5136L91.0797 3.8957H88.6383L88.2045 4.9835H87.5059L89.4766 0.0810547H90.2341L92.2122 4.9835ZM90.896 3.35154L89.8592 0.712891L88.8149 3.35154H90.896ZM93.2246 5.0717V4.5278C93.4354 4.5278 93.607 4.47881 93.7394 4.3808C93.8717 4.2828 93.9894 4.08803 94.0923 3.79648C94.1953 3.50493 94.2811 3.08721 94.3497 2.5433L94.6512 0.0810547H97.6515V4.9835H97.0412V0.624955H95.1954L94.9527 2.5874C94.889 3.11171 94.8044 3.5429 94.699 3.881C94.5936 4.21911 94.4637 4.47268 94.3093 4.64173C94.1548 4.81078 93.9955 4.9247 93.8313 4.9835C93.6671 5.0423 93.4648 5.0717 93.2246 5.0717ZM99.5098 0.0810547H100.12V2.0288H101.481C101.951 2.0288 102.325 2.1709 102.602 2.4551C102.879 2.73931 103.017 3.08965 103.017 3.50615C103.017 3.92266 102.88 4.273 102.606 4.5572C102.331 4.84141 101.956 4.9835 101.481 4.9835H99.5098V0.0810547ZM101.407 2.57227H100.12V4.43917H101.407C101.696 4.43917 101.932 4.35219 102.113 4.17824C102.294 4.00429 102.385 3.78012 102.385 3.50572C102.385 3.23131 102.294 3.00714 102.113 2.83319C101.932 2.65924 101.696 2.57227 101.407 2.57227ZM108.626 4.9835H108.015V2.7344H105.147V4.9835H104.537V0.0810547H105.147V2.1905H108.015V0.0810547H108.626V4.9835ZM112.719 5.0715C111.999 5.0715 111.413 4.8314 110.962 4.3512C110.511 3.871 110.285 3.26585 110.285 2.53575C110.285 1.80565 110.511 1.2005 110.962 0.7203C111.413 0.240098 111.999 0 112.719 0C113.435 0 114.02 0.240098 114.473 0.7203C114.927 1.2005 115.153 1.80565 115.153 2.53575C115.153 3.26585 114.927 3.871 114.473 4.3512C114.02 4.8314 113.435 5.0715 112.719 5.0715ZM112.719 4.52765C113.258 4.52765 113.693 4.34022 114.024 3.96537C114.355 3.59052 114.521 3.114 114.521 2.5358C114.521 1.95269 114.355 1.47495 114.024 1.10255C113.693 0.730143 113.258 0.543945 112.719 0.543945C112.175 0.543945 111.739 0.730143 111.41 1.10255C111.082 1.47495 110.917 1.95269 110.917 2.5358C110.917 3.114 111.082 3.59052 111.41 3.96537C111.739 4.34022 112.175 4.52765 112.719 4.52765ZM117.431 4.9835H116.82V0.0810547H120.034V0.624955H117.431V4.9835ZM123.811 5.0715C123.09 5.0715 122.505 4.8314 122.053 4.3512C121.602 3.871 121.377 3.26585 121.377 2.53575C121.377 1.80565 121.602 1.2005 122.053 0.7203C122.505 0.240098 123.09 0 123.811 0C124.527 0 125.111 0.240098 125.565 0.7203C126.018 1.2005 126.245 1.80565 126.245 2.53575C126.245 3.26585 126.018 3.871 125.565 4.3512C125.111 4.8314 124.527 5.0715 123.811 5.0715ZM123.811 4.52765C124.35 4.52765 124.785 4.34022 125.116 3.96537C125.447 3.59052 125.613 3.114 125.613 2.5358C125.613 1.95269 125.447 1.47495 125.116 1.10255C124.785 0.730143 124.35 0.543945 123.811 0.543945C123.267 0.543945 122.83 0.730143 122.502 1.10255C122.174 1.47495 122.009 1.95269 122.009 2.5358C122.009 3.114 122.174 3.59052 122.502 3.96537C122.83 4.34022 123.267 4.52765 123.811 4.52765ZM2.43406 14.0549C1.7134 14.0549 1.12756 13.8148 0.676537 13.3346C0.22551 12.8544 0 12.2493 0 11.5191C0 10.789 0.22551 10.1839 0.676537 9.7037C1.12756 9.2235 1.7134 8.9834 2.43406 8.9834C3.14982 8.9834 3.73443 9.2235 4.18791 9.7037C4.64139 10.1839 4.86812 10.789 4.86812 11.5191C4.86812 12.2493 4.64139 12.8544 4.18791 13.3346C3.73443 13.8148 3.14982 14.0549 2.43406 14.0549ZM2.43397 13.511C2.97324 13.511 3.40833 13.3236 3.73924 12.9488C4.07016 12.5739 4.23562 12.0974 4.23562 11.5192C4.23562 10.9361 4.07016 10.4583 3.73924 10.0859C3.40833 9.71354 2.97324 9.52734 2.43397 9.52734C1.8898 9.52734 1.45348 9.71354 1.12502 10.0859C0.796554 10.4583 0.632324 10.9361 0.632324 11.5192C0.632324 12.0974 0.796554 12.5739 1.12502 12.9488C1.45348 13.3236 1.8898 13.511 2.43397 13.511ZM6.53516 9.06396H9.71929V9.60786H7.14551V11.0117H8.50594C8.97657 11.0117 9.35038 11.1538 9.62737 11.438C9.90436 11.7222 10.0429 12.0726 10.0429 12.4891C10.0429 12.9056 9.90558 13.2559 9.63105 13.5401C9.35651 13.8243 8.98148 13.9664 8.50594 13.9664H6.53516V9.06396ZM8.4324 11.5557H7.14551V13.4226H8.4324C8.72164 13.4226 8.95696 13.3356 9.13835 13.1616C9.31974 12.9877 9.41043 12.7635 9.41043 12.4891C9.41043 12.2147 9.31974 11.9905 9.13835 11.8166C8.95696 11.6426 8.72164 11.5557 8.4324 11.5557ZM12.1729 13.9664H11.5625V9.06396H13.5333C14.0088 9.06396 14.3839 9.20606 14.6584 9.49026C14.9329 9.77447 15.0702 10.1248 15.0702 10.5413C15.0702 10.9578 14.9317 11.3082 14.6547 11.5924C14.3777 11.8766 14.0039 12.0187 13.5333 12.0187H12.1729V13.9664ZM13.4597 11.4748C13.749 11.4748 13.9843 11.3878 14.1657 11.2139C14.3471 11.0399 14.4378 10.8158 14.4378 10.5414C14.4378 10.267 14.3471 10.0428 14.1657 9.86884C13.9843 9.69488 13.749 9.60791 13.4597 9.60791H12.1729V11.4748H13.4597ZM20.7889 13.9664H20.0903L19.6564 12.8786H17.215L16.7811 13.9664H16.0825L18.0533 9.06396H18.8107L20.7889 13.9664ZM19.4727 12.3349L18.4358 9.69629L17.3916 12.3349H19.4727ZM23.6251 14.0549C23.2133 14.0549 22.8431 13.9789 22.5147 13.827C22.1862 13.6751 21.9411 13.4816 21.7793 13.2464L22.1396 12.8568C22.2867 13.0528 22.4938 13.2108 22.761 13.3309C23.0282 13.4509 23.3113 13.511 23.6104 13.511C23.9928 13.511 24.2942 13.4289 24.5149 13.2647C24.7355 13.1006 24.8458 12.8764 24.8458 12.5922C24.8458 12.2982 24.7318 12.0802 24.5038 11.9381C24.2759 11.796 23.9658 11.7249 23.5736 11.7249H22.5735V11.181H23.5736C23.9217 11.181 24.2072 11.1136 24.4303 10.9789C24.6534 10.8441 24.7649 10.642 24.7649 10.3725C24.7649 10.1079 24.6534 9.90212 24.4303 9.75512C24.2072 9.60812 23.9266 9.53462 23.5883 9.53462C23.0343 9.53462 22.571 9.73307 22.1985 10.13L21.8602 9.74777C22.0563 9.52237 22.3075 9.33985 22.6139 9.2002C22.9203 9.06055 23.2598 8.99072 23.6324 8.99072C24.1325 8.99072 24.5504 9.10832 24.8862 9.34352C25.222 9.57872 25.3899 9.89722 25.3899 10.299C25.3899 10.6224 25.2809 10.8809 25.0627 11.0744C24.8445 11.268 24.6007 11.3893 24.331 11.4383C24.6007 11.4628 24.8568 11.5804 25.0995 11.7911C25.3421 12.0018 25.4635 12.286 25.4635 12.6437C25.4635 13.0553 25.2943 13.3934 24.9561 13.658C24.6178 13.9226 24.1741 14.0549 23.6251 14.0549ZM29.3804 14.0549C28.6597 14.0549 28.0739 13.8148 27.6228 13.3346C27.1718 12.8544 26.9463 12.2493 26.9463 11.5191C26.9463 10.789 27.1718 10.1839 27.6228 9.7037C28.0739 9.2235 28.6597 8.9834 29.3804 8.9834C30.0961 8.9834 30.6807 9.2235 31.1342 9.7037C31.5877 10.1839 31.8144 10.789 31.8144 11.5191C31.8144 12.2493 31.5877 12.8544 31.1342 13.3346C30.6807 13.8148 30.0961 14.0549 29.3804 14.0549ZM29.3803 13.511C29.9195 13.511 30.3546 13.3236 30.6855 12.9488C31.0165 12.5739 31.1819 12.0974 31.1819 11.5192C31.1819 10.9361 31.0165 10.4583 30.6855 10.0859C30.3546 9.71354 29.9195 9.52734 29.3803 9.52734C28.8361 9.52734 28.3998 9.71354 28.0713 10.0859C27.7428 10.4583 27.5786 10.9361 27.5786 11.5192C27.5786 12.0974 27.7428 12.5739 28.0713 12.9488C28.3998 13.3236 28.8361 13.511 29.3803 13.511ZM35.717 13.9664H33.4814V9.06396H35.6655C36.0871 9.06396 36.4217 9.17911 36.6693 9.40942C36.9168 9.63972 37.0406 9.94106 37.0406 10.3135C37.0406 10.6075 36.9573 10.8561 36.7906 11.0595C36.6239 11.2628 36.4205 11.389 36.1802 11.438C36.4401 11.4772 36.6644 11.6144 36.8531 11.8496C37.0418 12.0848 37.1362 12.3494 37.1362 12.6434C37.1362 13.0403 37.01 13.36 36.7575 13.6026C36.505 13.8451 36.1582 13.9664 35.717 13.9664ZM35.5625 11.1882C35.8322 11.1882 36.0405 11.1147 36.1876 10.9677C36.3347 10.8207 36.4082 10.632 36.4082 10.4017C36.4082 10.1714 36.3334 9.98154 36.1839 9.83209C36.0344 9.68263 35.8273 9.60791 35.5625 9.60791H34.0918V11.1882H35.5625ZM35.5919 13.4229C35.8763 13.4229 36.0993 13.347 36.2611 13.1951C36.4229 13.0432 36.5038 12.8374 36.5038 12.5777C36.5038 12.3376 36.4241 12.1367 36.2648 11.975C36.1055 11.8133 35.8812 11.7324 35.5919 11.7324H34.0918V13.4229H35.5919ZM43.0164 13.9664H42.3178L41.8839 12.8786H39.4425L39.0087 13.9664H38.3101L40.2808 9.06396H41.0383L43.0164 13.9664ZM41.7002 12.3349L40.6634 9.69629L39.6191 12.3349H41.7002ZM48.4558 13.9664H47.8455V11.7173H44.9775V13.9664H44.3672V9.06396H44.9775V11.1734H47.8455V9.06396H48.4558V13.9664ZM50.9023 13.9664H50.314V9.06396H50.9243V12.8933L53.7481 9.06396H54.3732V13.9664H53.7628V10.0562L50.9023 13.9664ZM56.7162 13.9664H56.0029L57.3266 11.9672C56.9687 11.9378 56.666 11.7982 56.4184 11.5483C56.1708 11.2984 56.0471 10.9627 56.0471 10.5413C56.0471 10.0954 56.1904 9.73772 56.4772 9.46821C56.764 9.19871 57.1354 9.06396 57.5913 9.06396H59.5621V13.9664H58.9517V12.0187H57.9664L56.7162 13.9664ZM57.6577 11.4822H58.952V9.60791H57.6577C57.3685 9.60791 57.1332 9.69488 56.9518 9.86884C56.7704 10.0428 56.6797 10.267 56.6797 10.5414C56.6797 10.8158 56.7716 11.0412 56.9554 11.2176C57.1393 11.394 57.3734 11.4822 57.6577 11.4822Z" transform="translate(35.5093 34.2168)" fill="white"/>
<path fill-rule="evenodd" clip-rule="evenodd" d="M4.49924 19.6V3.46785H0V0H13.0732V3.46785H8.57332V19.6H4.49924Z" transform="translate(31.8657 4.8999)" fill="white"/>
<path fill-rule="evenodd" clip-rule="evenodd" d="M6.18592 2.8125C4.24917 2.8125 3.55498 4.63942 3.49756 6.08909H8.90299C8.845 4.63942 8.20937 2.8125 6.18592 2.8125ZM0 7.33589C0 3.27659 2.37026 0 6.24375 0C10.088 0 12.2561 3.13145 12.2561 7.48045V8.46648H3.49739C3.64209 10.3798 4.76923 11.8876 6.87938 11.8876C7.86239 11.8876 9.13422 11.3952 9.91455 10.5249L11.5045 12.6122C10.2614 13.9755 8.38261 14.7 6.50328 14.7C2.57237 14.7 0 11.7431 0 7.33589Z" transform="translate(43.3047 9.7998)" fill="white"/>
<path fill-rule="evenodd" clip-rule="evenodd" d="M9.12651 13.8833L6.53629 9.25556L3.91555 13.8833H0L4.24703 6.81234L0.210616 0H4.15668L6.53629 4.36912L8.88597 0H12.832L8.79562 6.81234L13.0732 13.8833H9.12651Z" transform="translate(54.7441 10.6167)" fill="white"/>
<path fill-rule="evenodd" clip-rule="evenodd" d="M0 13.8833V0H3.50173V5.1742H7.90773V0H11.439V13.8833H7.90773V8.19239H3.50173V13.8833H0Z" transform="translate(68.6343 10.6167)" fill="white"/>
<path fill-rule="evenodd" clip-rule="evenodd" d="M9.36384 7.33586C9.36384 5.0453 8.49622 3.07324 6.52208 3.07324C4.60677 3.07324 3.73975 5.0453 3.73975 7.33586C3.73975 9.65521 4.60677 11.6273 6.52208 11.6273C8.49622 11.6273 9.36384 9.65521 9.36384 7.33586ZM0 7.33589C0 3.42173 2.27365 0 6.52203 0C10.8298 0 13.0732 3.42173 13.0732 7.33589C13.0732 11.2789 10.8298 14.7 6.52203 14.7C2.27365 14.7 0 11.2789 0 7.33589Z" transform="translate(81.7075 9.7998)" fill="white"/>
<path fill-rule="evenodd" clip-rule="evenodd" d="M10.6553 19.6V3.46785H4.0216V19.6H0V0H14.7073V19.6H10.6553Z" transform="translate(96.4146 4.8999)" fill="white"/>
<path fill-rule="evenodd" clip-rule="evenodd" d="M8.64663 7.60745C8.64663 5.08157 7.7156 3.18701 5.9102 3.18701C4.97917 3.18701 3.95966 3.90852 3.49414 4.87133V10.3436C3.95966 11.2759 4.97917 12.0577 5.9102 12.0577C7.7156 12.0577 8.64663 10.1632 8.64663 7.60745ZM3.49398 13.0499V20.4167H0V0.360754H3.49398V2.19499C4.36718 0.751373 5.67757 0 7.0452 0C10.2188 0 12.2561 2.85677 12.2561 7.6075C12.2561 12.3278 10.2188 15.2443 7.0452 15.2443C5.7059 15.2443 4.36718 14.5532 3.49398 13.0499Z" transform="translate(112.756 9.7998)" fill="white"/>
<path fill-rule="evenodd" clip-rule="evenodd" d="M9.36299 7.33586C9.36299 5.0453 8.496 3.07324 6.52136 3.07324C4.60733 3.07324 3.73975 5.0453 3.73975 7.33586C3.73975 9.65521 4.60733 11.6273 6.52136 11.6273C8.496 11.6273 9.36299 9.65521 9.36299 7.33586ZM0 7.33589C0 3.42173 2.27354 0 6.52114 0C10.8287 0 13.0732 3.42173 13.0732 7.33589C13.0732 11.2789 10.8287 14.7 6.52114 14.7C2.27354 14.7 0 11.2789 0 7.33589Z" transform="translate(126.646 9.7998)" fill="white"/>
<path fill-rule="evenodd" clip-rule="evenodd" d="M8.9878 3.01876H3.45698V13.8833H0V0H8.9878V3.01876Z" transform="translate(140.537 10.6167)" fill="white"/>
<path fill-rule="evenodd" clip-rule="evenodd" d="M8.64632 7.60745C8.64632 5.08157 7.71413 3.18701 5.90931 3.18701C4.9777 3.18701 3.95877 3.90852 3.49268 4.87133V10.3436C3.95877 11.2759 4.9777 12.0577 5.90931 12.0577C7.71413 12.0577 8.64632 10.1632 8.64632 7.60745ZM3.49282 13.0499V20.4167H0V0.360754H3.49282V2.19499C4.3666 0.751373 5.67699 0 7.0452 0C10.2177 0 12.2561 2.85677 12.2561 7.6075C12.2561 12.3278 10.2177 15.2443 7.0452 15.2443C5.7059 15.2443 4.3666 14.5532 3.49282 13.0499Z" transform="translate(151.159 9.7998)" fill="white"/>
<path fill-rule="evenodd" clip-rule="evenodd" d="M6.18592 2.8125C4.24917 2.8125 3.55555 4.63942 3.49756 6.08909H8.90299C8.845 4.63942 8.20937 2.8125 6.18592 2.8125ZM0 7.33589C0 3.27659 2.37026 0 6.24375 0C10.0874 0 12.2561 3.13145 12.2561 7.48045V8.46648H3.49739C3.64209 10.3798 4.7698 11.8876 6.87995 11.8876C7.86239 11.8876 9.13422 11.3952 9.91455 10.5249L11.5045 12.6122C10.2614 13.9755 8.38261 14.7 6.50328 14.7C2.57295 14.7 0 11.7431 0 7.33589Z" transform="translate(165.049 9.7998)" fill="white"/>
<path fill-rule="evenodd" clip-rule="evenodd" d="M0 7.33589C0 3.07328 2.68373 0 6.74114 0C9.05948 0 10.5846 0.898484 11.439 1.88509L9.60847 4.29141C8.93768 3.50812 8.1439 3.07328 7.13742 3.07328C5.03237 3.07328 3.78231 4.90019 3.78231 7.33589C3.78231 9.77101 5.03237 11.6273 7.13742 11.6273C8.1439 11.6273 8.93768 11.1919 9.60847 10.4092L11.439 12.8155C10.5846 13.8015 9.05948 14.7 6.74114 14.7C2.68373 14.7 0 11.6273 0 7.33589Z" transform="translate(178.122 9.7998)" fill="white"/>
<mask id="mask0" mask-type="alpha" maskUnits="userSpaceOnUse" x="0" y="5" width="201" height="20">
<path fill-rule="evenodd" clip-rule="evenodd" d="M0 0H200.657V19.6852H0V0Z" transform="translate(0.0356445 5.17041)" fill="white"/>
</mask>
<g mask="url(#mask0)">
<path fill-rule="evenodd" clip-rule="evenodd" d="M0 7.57196C0 3.17217 2.61891 0 6.57684 0C8.83927 0 10.3273 0.927397 11.1602 1.94575L9.37488 4.42951C8.71985 3.62101 7.94659 3.17217 6.96406 3.17217C4.9109 3.17217 3.69071 5.05788 3.69071 7.57196C3.69071 10.0854 4.9109 12.0015 6.96406 12.0015C7.94659 12.0015 8.71985 11.552 9.37488 10.7441L11.1602 13.2279C10.3273 14.2457 8.83927 15.173 6.57684 15.173C2.61891 15.173 0 12.0015 0 7.57196Z" transform="translate(189.532 9.68262)" fill="white"/>
</g>
<path fill-rule="evenodd" clip-rule="evenodd" d="M12.5844 3.23567L10.9004 0.315918L7.07102 6.93504L0 19.1707H4.74197L12.5673 5.42887C12.8922 4.87335 12.8969 3.80476 12.5844 3.23567ZM11.0837 0L11.063 0.0359735H11.0642L11.0837 0Z" transform="translate(0 5.57568)" fill="white"/>
<path fill-rule="evenodd" clip-rule="evenodd" d="M0 8.67256H9.99193L4.98888 0L0 8.67256Z" transform="translate(12.1118 16.0742)" fill="white"/>
<path fill-rule="evenodd" clip-rule="evenodd" d="M1.48379 0.726547C1.48201 2.15428 1.05377 3.62035 0.0850578 5.49038C0.0850578 5.49038 0.0431196 5.56587 0 5.64135C0.131721 5.86958 4.34622 13.1751 5.73195 15.5748H10.4326L1.44244 0L1.48379 0.726547Z" transform="translate(17.8296 9.17188)" fill="white"/>
<path fill-rule="evenodd" clip-rule="evenodd" d="M10.8207 13.6286C11.4633 12.4144 12.0286 11.0191 12.0292 9.61318C12.0298 8.09522 11.6937 6.592 11.0398 5.31523L8.061 0L7.35868 1.21484L7.36045 1.21366L5.55239 4.33746L6.98537 6.87978L7.51462 7.82158C8.07399 8.81174 8.07104 10.4323 7.5034 11.4207L7.42661 11.551L3.16663 18.9533L0 24.462H4.61202C4.61202 24.462 10.5153 14.1765 10.631 13.9719C10.7445 13.7696 10.8207 13.6286 10.8207 13.6286Z" transform="translate(6.08203 0.284668)" fill="white"/>
</svg>
