<svg xmlns="http://www.w3.org/2000/svg" viewBox="0 0 155.58 43.09"><defs><style>.cls-1{fill:#fff;}</style></defs><title>Asset 1</title><g id="Layer_2" data-name="Layer 2"><g id="Layer_1-2" data-name="Layer 1"><path class="cls-1" d="M28.35,19V6.34H24.93V3.62h9.92V6.34H31.44V19Z"/><path class="cls-1" d="M33.35,13.43c0-3.23,1.9-5.84,5-5.84s4.8,2.49,4.8,5.95v.79h-7a2.64,2.64,0,0,0,2.69,2.72A3.51,3.51,0,0,0,41.27,16l1.27,1.66a5.48,5.48,0,0,1-4,1.66C35.41,19.29,33.35,16.93,33.35,13.43Zm4.94-3.6c-1.54,0-2.1,1.45-2.14,2.61h4.31C40.41,11.28,39.91,9.83,38.29,9.83Z"/><path class="cls-1" d="M49.73,19l-2-3.71-2,3.71h-3L46,13.34,42.9,7.87h3l1.82,3.5,1.8-3.5h3l-3.09,5.47L52.76,19Z"/><path class="cls-1" d="M53.47,19V7.87h2.77V12h3.48V7.87h2.79V19H59.72V14.44H56.24V19Z"/><path class="cls-1" d="M63.58,13.43c0-3.12,1.75-5.84,5-5.84s5,2.72,5,5.84-1.73,5.86-5,5.86S63.58,16.57,63.58,13.43Zm7.22,0c0-1.83-.67-3.39-2.19-3.39s-2.15,1.56-2.15,3.39.67,3.41,2.15,3.41S70.8,15.27,70.8,13.43Z"/><path class="cls-1" d="M83.12,19V6.34H78V19H74.93V3.62h11.3V19Z"/><path class="cls-1" d="M90.43,17.6v5.66H87.66V7.87h2.77v1.4a3.33,3.33,0,0,1,2.81-1.68c2.52,0,4.13,2.19,4.13,5.84s-1.61,5.86-4.13,5.86A3.24,3.24,0,0,1,90.43,17.6Zm4.08-4.17c0-1.94-.73-3.39-2.17-3.39a2.32,2.32,0,0,0-1.91,1.29v4.2a2.41,2.41,0,0,0,1.91,1.31C93.78,16.84,94.51,15.39,94.51,13.43Z"/><path class="cls-1" d="M98.25,13.43c0-3.12,1.75-5.84,5-5.84s5,2.72,5,5.84-1.73,5.86-5,5.86S98.25,16.57,98.25,13.43Zm7.22,0c0-1.83-.67-3.39-2.19-3.39s-2.15,1.56-2.15,3.39.67,3.41,2.15,3.41S105.47,15.27,105.47,13.43Z"/><path class="cls-1" d="M116.41,10.29H112V19h-2.77V7.87h7.2Z"/><path class="cls-1" d="M120.1,17.6v5.66h-2.77V7.87h2.77v1.4a3.33,3.33,0,0,1,2.81-1.68c2.52,0,4.13,2.19,4.13,5.84s-1.61,5.86-4.13,5.86A3.24,3.24,0,0,1,120.1,17.6Zm4.08-4.17c0-1.94-.74-3.39-2.17-3.39a2.32,2.32,0,0,0-1.91,1.29v4.2A2.41,2.41,0,0,0,122,16.84C123.44,16.84,124.18,15.39,124.18,13.43Z"/><path class="cls-1" d="M127.78,13.43c0-3.23,1.89-5.84,5-5.84s4.8,2.49,4.8,5.95v.79h-7a2.66,2.66,0,0,0,2.7,2.72A3.47,3.47,0,0,0,135.69,16L137,17.63a5.44,5.44,0,0,1-4,1.66C129.83,19.29,127.78,16.93,127.78,13.43Zm4.94-3.6c-1.55,0-2.1,1.45-2.15,2.61h4.32C134.84,11.28,134.33,9.83,132.72,9.83Z"/><path class="cls-1" d="M138.26,13.43c0-3.39,2-5.84,5.09-5.84a4.47,4.47,0,0,1,3.56,1.5L145.52,11a2.31,2.31,0,0,0-1.87-1c-1.59,0-2.53,1.45-2.53,3.39s.94,3.41,2.53,3.41a2.29,2.29,0,0,0,1.87-1l1.39,1.92a4.47,4.47,0,0,1-3.56,1.5C140.29,19.29,138.26,16.84,138.26,13.43Z"/><path class="cls-1" d="M146.93,13.43c0-3.39,2-5.84,5.1-5.84a4.44,4.44,0,0,1,3.55,1.5L154.2,11a2.34,2.34,0,0,0-1.87-1c-1.59,0-2.54,1.45-2.54,3.39s1,3.41,2.54,3.41a2.32,2.32,0,0,0,1.87-1l1.38,1.92a4.44,4.44,0,0,1-3.55,1.5C149,19.29,146.93,16.84,146.93,13.43Z"/><path class="cls-1" d="M8.6,4.11l0,0h0ZM9.76,6.63,8.46,4.36l-3,5.14L0,19H3.68L9.75,8.33A2,2,0,0,0,9.76,6.63Z"/><polygon class="cls-1" points="9.4 19.01 17.15 19.01 13.27 12.27 9.4 19.01"/><path class="cls-1" d="M15,7.47a8,8,0,0,1-1.08,3.7l-.07.12c.11.18,3.38,5.86,4.45,7.72h3.65l-5.48-9.5L15,6.91Z"/><path class="cls-1" d="M13.11,10.59a6.88,6.88,0,0,0,.94-3.12,7.36,7.36,0,0,0-.77-3.34L11,0l-.54.94h0L9,3.37l1.11,2,.41.73a3.17,3.17,0,0,1,0,2.8l-.06.1-3.3,5.75L4.72,19H8.3L13,10.86C13.06,10.7,13.11,10.59,13.11,10.59Z"/><path class="cls-1" d="M32.55,32.32H28.39V27.13H29v4.62h3V27.13h.65v4.62h.47v1.53h-.64Z"/><path class="cls-1" d="M33.78,30.44a1.87,1.87,0,0,1,1.85-2,1.82,1.82,0,0,1,1.8,2v.15h-3a1.33,1.33,0,0,0,1.36,1.3,1.64,1.64,0,0,0,1.15-.47l.28.38a2,2,0,0,1-1.49.57A1.86,1.86,0,0,1,33.78,30.44ZM35.62,29a1.26,1.26,0,0,0-1.23,1.25h2.47A1.22,1.22,0,0,0,35.62,29Z"/><path class="cls-1" d="M38.38,32.32V28.56H39v1.57h2V28.56h.58v3.76h-.58V30.64H39v1.68Z"/><path class="cls-1" d="M43.35,32.32V29.08H42.26v-.52H45v.52h-1.1v3.24Z"/><path class="cls-1" d="M46.38,31.75v2H45.8V28.56h.58v.56a1.57,1.57,0,0,1,1.27-.65c1,0,1.67.75,1.67,2s-.68,2-1.67,2A1.56,1.56,0,0,1,46.38,31.75Zm2.33-1.31c0-.83-.45-1.45-1.21-1.45a1.38,1.38,0,0,0-1.12.6v1.7a1.4,1.4,0,0,0,1.12.6C48.26,31.89,48.71,31.27,48.71,30.44Z"/><path class="cls-1" d="M54.8,32.32V29.08h-2v3.24h-.58V28.56h3.13v3.76Z"/><path class="cls-1" d="M57.14,31.75v2h-.59V28.56h.59v.56a1.57,1.57,0,0,1,1.26-.65c1,0,1.68.75,1.68,2a1.73,1.73,0,0,1-1.68,2A1.52,1.52,0,0,1,57.14,31.75Zm2.32-1.31c0-.83-.45-1.45-1.2-1.45a1.38,1.38,0,0,0-1.12.6v1.7a1.4,1.4,0,0,0,1.12.6C59,31.89,59.46,31.27,59.46,30.44Z"/><path class="cls-1" d="M60.79,30.44a1.86,1.86,0,1,1,1.85,2A1.84,1.84,0,0,1,60.79,30.44Zm3.1,0a1.26,1.26,0,1,0-1.25,1.45A1.3,1.3,0,0,0,63.89,30.44Z"/><path class="cls-1" d="M67.69,29.13v-2h.58v2a1.21,1.21,0,0,1,1-.65c.79,0,1.35.75,1.35,2s-.56,2-1.35,2a1.19,1.19,0,0,1-1-.66v2h-.58v-2a1.22,1.22,0,0,1-1,.65c-.79,0-1.35-.74-1.35-2s.56-2,1.35-2A1.21,1.21,0,0,1,67.69,29.13ZM65.9,30.45c0,.83.34,1.44.92,1.44a1,1,0,0,0,.87-.6V29.6a1,1,0,0,0-.87-.61C66.24,29,65.9,29.61,65.9,30.45Zm4.15,0c0-.83-.34-1.45-.92-1.45a1,1,0,0,0-.86.6v1.7a1.06,1.06,0,0,0,.86.6C69.71,31.89,70.05,31.27,70.05,30.44Z"/><path class="cls-1" d="M71.45,30.44a1.87,1.87,0,0,1,1.85-2,1.82,1.82,0,0,1,1.8,2v.15h-3a1.33,1.33,0,0,0,1.36,1.3,1.64,1.64,0,0,0,1.15-.47l.28.38a2,2,0,0,1-1.49.57A1.86,1.86,0,0,1,71.45,30.44ZM73.29,29a1.26,1.26,0,0,0-1.23,1.25h2.47A1.22,1.22,0,0,0,73.29,29Z"/><path class="cls-1" d="M75.83,30.44a1.85,1.85,0,0,1,1.87-2,1.62,1.62,0,0,1,1.38.65l-.39.36a1.12,1.12,0,0,0-1-.49,1.46,1.46,0,0,0,0,2.9,1.12,1.12,0,0,0,1-.49l.39.36a1.62,1.62,0,0,1-1.38.65A1.85,1.85,0,0,1,75.83,30.44Z"/><path class="cls-1" d="M79.68,30.44a1.85,1.85,0,0,1,1.87-2,1.62,1.62,0,0,1,1.38.65l-.39.36a1.12,1.12,0,0,0-1-.49,1.46,1.46,0,0,0,0,2.9,1.12,1.12,0,0,0,1-.49l.39.36a1.62,1.62,0,0,1-1.38.65A1.85,1.85,0,0,1,79.68,30.44Z"/><path class="cls-1" d="M83.75,32.32V28.56h.58v2.87l2-2.87h.58v3.76h-.59V29.39l-2,2.93Z"/><path class="cls-1" d="M87.83,30.44a1.86,1.86,0,1,1,1.86,2A1.84,1.84,0,0,1,87.83,30.44Zm3.1,0a1.26,1.26,0,1,0-1.24,1.45A1.3,1.3,0,0,0,90.93,30.44Z"/><path class="cls-1" d="M92.5,32.32V28.56h.58v1.57h2V28.56h.58v3.76H95V30.64h-2v1.68Z"/><path class="cls-1" d="M99.14,32.32v-.43a1.6,1.6,0,0,1-1.25.52,1.24,1.24,0,1,1,0-2.48,1.57,1.57,0,0,1,1.25.52v-.68c0-.51-.4-.8-1-.8A1.49,1.49,0,0,0,97,29.5l-.27-.41a2,2,0,0,1,1.5-.62c.79,0,1.45.36,1.45,1.27v2.58Zm0-.79v-.71a1.27,1.27,0,0,0-1-.47.83.83,0,1,0,0,1.64A1.26,1.26,0,0,0,99.14,31.53Z"/><path class="cls-1" d="M100.45,31.93c.35,0,.56-.4.71-1.52l.24-1.85H104v3.76h-.59V29.08h-1.51l-.17,1.4c-.17,1.4-.58,1.93-1.3,1.93Z"/><path class="cls-1" d="M105.77,28.56V30h1.41a1.15,1.15,0,1,1,0,2.3h-2V28.56Zm0,2v1.28h1.35a.64.64,0,1,0,0-1.28Z"/><path class="cls-1" d="M109.25,32.32V28.56h.58v1.57h2V28.56h.59v3.76h-.59V30.64h-2v1.68Z"/><path class="cls-1" d="M113.33,30.44a1.86,1.86,0,1,1,1.85,2A1.84,1.84,0,0,1,113.33,30.44Zm3.1,0a1.26,1.26,0,1,0-1.25,1.45A1.3,1.3,0,0,0,116.43,30.44Z"/><path class="cls-1" d="M120.62,29.08h-2v3.24H118V28.56h2.63Z"/><path class="cls-1" d="M121.17,30.44a1.86,1.86,0,1,1,1.86,2A1.85,1.85,0,0,1,121.17,30.44Zm3.1,0A1.26,1.26,0,1,0,123,31.89,1.3,1.3,0,0,0,124.27,30.44Z"/><path class="cls-1" d="M28.15,39.78a1.86,1.86,0,1,1,1.86,2A1.85,1.85,0,0,1,28.15,39.78Zm3.11,0A1.26,1.26,0,1,0,30,41.23,1.31,1.31,0,0,0,31.26,39.78Z"/><path class="cls-1" d="M32.6,39.6c0-1.82.66-2.58,2-2.75.82-.12,1.06-.23,1.06-.38h.57c0,.61-.84.78-1.48.86-1.11.16-1.45.64-1.58,1.28a1.65,1.65,0,0,1,1.41-.8,1.81,1.81,0,0,1,1.76,2,1.84,1.84,0,0,1-1.85,2A1.91,1.91,0,0,1,32.6,39.6Zm3.11.17a1.27,1.27,0,1,0-1.25,1.46A1.31,1.31,0,0,0,35.71,39.77Z"/><path class="cls-1" d="M37.89,41.09v2h-.58V37.9h.58v.56a1.57,1.57,0,0,1,1.27-.65c1,0,1.67.74,1.67,2s-.68,2-1.67,2A1.56,1.56,0,0,1,37.89,41.09Zm2.33-1.31c0-.84-.45-1.45-1.21-1.45a1.38,1.38,0,0,0-1.12.6v1.69a1.38,1.38,0,0,0,1.12.61C39.77,41.23,40.22,40.61,40.22,39.78Z"/><path class="cls-1" d="M44.11,41.66v-.43a1.64,1.64,0,0,1-1.25.52,1.25,1.25,0,0,1-1.31-1.24,1.23,1.23,0,0,1,1.31-1.24,1.57,1.57,0,0,1,1.25.51v-.67c0-.51-.4-.8-1-.8a1.51,1.51,0,0,0-1.15.52l-.27-.4a2,2,0,0,1,1.5-.62c.79,0,1.45.35,1.45,1.27v2.58Zm0-.8v-.7a1.27,1.27,0,0,0-1-.47.83.83,0,1,0,0,1.64A1.24,1.24,0,0,0,44.11,40.86Z"/><path class="cls-1" d="M45.5,41.14l.28-.38a2,2,0,0,0,1.41.51c.67,0,1.11-.26,1.11-.65S47.78,40,47.11,40h-.84v-.47h.84c.63,0,1.12-.2,1.12-.63s-.48-.6-1.1-.6a1.65,1.65,0,0,0-1.26.48l-.3-.36a2.1,2.1,0,0,1,1.54-.6c1,0,1.72.37,1.72,1s-.56.86-1,.92c.44,0,1.09.29,1.09.91s-.64,1.1-1.72,1.1A2.33,2.33,0,0,1,45.5,41.14Z"/><path class="cls-1" d="M49.64,39.78a1.86,1.86,0,1,1,1.86,2A1.85,1.85,0,0,1,49.64,39.78Zm3.11,0a1.26,1.26,0,1,0-1.25,1.45A1.31,1.31,0,0,0,52.75,39.78Z"/><path class="cls-1" d="M54.31,41.66V37.9h2.07a1,1,0,0,1,1.06,1,.87.87,0,0,1-.61.86,1,1,0,0,1,.69.92,1,1,0,0,1-1.1,1ZM56.84,39a.51.51,0,0,0-.56-.54H54.89v1.06h1.39A.5.5,0,0,0,56.84,39Zm.07,1.62A.57.57,0,0,0,56.3,40H54.89v1.16H56.3A.55.55,0,0,0,56.91,40.57Z"/><path class="cls-1" d="M61,41.66v-.43a1.63,1.63,0,0,1-1.24.52,1.25,1.25,0,0,1-1.32-1.24,1.24,1.24,0,0,1,1.32-1.24,1.56,1.56,0,0,1,1.24.51v-.67c0-.51-.4-.8-.95-.8a1.53,1.53,0,0,0-1.15.52l-.27-.4a2,2,0,0,1,1.5-.62c.79,0,1.46.35,1.46,1.27v2.58Zm0-.8v-.7a1.25,1.25,0,0,0-1-.47.83.83,0,1,0,0,1.64A1.22,1.22,0,0,0,61,40.86Z"/><path class="cls-1" d="M62.72,41.66V37.9h.59v1.56h2V37.9h.58v3.76h-.58V40h-2v1.68Z"/><path class="cls-1" d="M67,41.66V37.9h.58v2.87l2-2.87h.58v3.76h-.59V38.73l-2,2.93Z"/><path class="cls-1" d="M71.19,41.66l1-1.48a1.08,1.08,0,0,1-1-1.13,1.11,1.11,0,0,1,1.19-1.15h2v3.76h-.58V40.2h-1l-.92,1.46Zm2.63-2V38.41H72.48a.61.61,0,0,0-.65.64.59.59,0,0,0,.65.64Z"/></g></g></svg>