<svg width="24" height="32" viewBox="0 0 24 32" fill="none" xmlns="http://www.w3.org/2000/svg">
<path fill-rule="evenodd" clip-rule="evenodd" d="M13.1523 30.8062C13.1523 30.8062 24 21.8203 24 12.1172C24 5.42529 18.6274 0 12 0C5.37256 0 0 5.42529 0 12.1172C0 21.8203 10.8477 30.8062 10.8477 30.8062C11.4814 31.3311 12.5186 31.3311 13.1523 30.8062ZM5.6001 12.3999C5.6001 15.7085 8.47119 18.3999 12 18.3999C15.5293 18.3999 18.3999 15.708 18.3999 12.3999C18.3999 9.09131 15.5288 6.3999 12 6.3999C8.47119 6.3999 5.6001 9.0918 5.6001 12.3999Z" fill="#D52343"/>
</svg>
