<svg width="44" height="40" viewBox="0 0 44 40" fill="none" xmlns="http://www.w3.org/2000/svg">
<path fill-rule="evenodd" clip-rule="evenodd" d="M2.65625 0H41.3438C42.8086 0 44 1.19141 44 2.65625V29.3672C44 30.832 42.8081 32.0234 41.3433 32.0234H28.0869V33.9561C28.0869 35.728 29.5283 37.1694 31.3003 37.1694H34.2217C34.7817 37.1694 35.2363 37.6235 35.2363 38.1836C35.2363 38.7441 34.7817 39.1982 34.2217 39.1982H9.77783C9.21777 39.1982 8.76367 38.7441 8.76367 38.1836C8.76367 37.6235 9.21777 37.1694 9.77783 37.1694H12.6997C14.4717 37.1694 15.9131 35.728 15.9131 33.9561V32.0234H2.65625C1.19141 32.0234 0 30.832 0 29.3672V2.65625C0 1.19141 1.19141 0 2.65625 0ZM17.9419 33.9561C17.9419 35.1665 17.5283 36.2812 16.8369 37.1694H27.1631C26.4717 36.2812 26.0586 35.1665 26.0586 33.9561V32.0234H17.9419V33.9561ZM41.9712 29.3672C41.9712 29.7134 41.6895 29.9946 41.3433 29.9946H2.65625C2.31006 29.9946 2.02832 29.7134 2.02832 29.3672V24.0361H41.9712V29.3672ZM2.02881 22.0073H41.9717V2.65625C41.9717 2.31006 41.6899 2.02832 41.3438 2.02832H2.65674C2.31055 2.02832 2.02881 2.31006 2.02881 2.65625V22.0073Z" transform="translate(0 0.0805664)" fill="#D80027"/>
<path d="M1.09467 2.18934C1.69924 2.18934 2.18934 1.69924 2.18934 1.09467C2.18934 0.490101 1.69924 0 1.09467 0C0.490101 0 0 0.490101 0 1.09467C0 1.69924 0.490101 2.18934 1.09467 2.18934Z" transform="translate(20.9058 26.002)" fill="#D80027"/>
<path d="M8.90001 0.297064C8.50384 -0.0990215 7.8618 -0.0990215 7.46546 0.297064L0.297064 7.46546C-0.0990215 7.86154 -0.0990215 8.50384 0.297064 8.90001C0.495236 9.0981 0.754682 9.1971 1.01438 9.1971C1.27409 9.1971 1.53353 9.0981 1.73162 8.90001L8.90001 1.73162C9.2961 1.33553 9.2961 0.693236 8.90001 0.297064Z" transform="translate(14.8394 6.77148)" fill="#D80027"/>
<path d="M4.58724 0.297075C4.19124 -0.0990108 3.5492 -0.0990107 3.15277 0.296989L0.297064 3.15252C-0.0990215 3.54869 -0.0990215 4.19099 0.297064 4.58708C0.49515 4.78516 0.754682 4.88416 1.0143 4.88416C1.27383 4.88416 1.53345 4.78516 1.73153 4.58708L4.58724 1.73154C4.98332 1.33546 4.98332 0.693161 4.58724 0.297075Z" transform="translate(23.4009 10.9258)" fill="#D80027"/>
</svg>
