<svg width="65" height="65" viewBox="0 0 65 65" fill="none" xmlns="http://www.w3.org/2000/svg">
<path d="M0.11565 5.80051C0.304008 6.16852 0.678728 6.38113 1.06617 6.38113C1.22796 6.38113 1.39399 6.34387 1.54842 6.26523C1.61116 6.23333 7.87663 3.05359 10.9667 2.07842C11.5267 1.90083 11.8374 1.30314 11.6596 0.743834C11.4829 0.184404 10.889 -0.127152 10.3238 0.0494382C7.06868 1.07782 0.84588 4.23625 0.58193 4.37022C0.0581445 4.63604 -0.150421 5.27635 0.11565 5.80051Z" transform="translate(36.2603 25.4438)" fill="#D80027"/>
<path d="M1.06615 6.38113C1.22794 6.38113 1.39397 6.34387 1.5484 6.26523C1.61114 6.23333 7.8766 3.05359 10.9667 2.07842C11.5266 1.90083 11.8374 1.30314 11.6596 0.743834C11.4828 0.184404 10.889 -0.127152 10.3238 0.0494382C7.06866 1.07782 0.845857 4.23625 0.581907 4.37022C0.0582463 4.63604 -0.150444 5.27623 0.115627 5.80051C0.303985 6.1684 0.678705 6.38113 1.06615 6.38113Z" transform="translate(36.2603 12.6826)" fill="#D80027"/>
<path d="M62.8027 15.9522C62.214 15.9522 61.7383 16.4286 61.7383 17.0156V58.4899C61.7383 60.2488 60.3055 61.6803 58.5449 61.6803H32.9981V59.2333C34.5501 58.6909 38.5928 57.4265 42.5781 57.4265C51.8506 57.4265 58.1469 59.4779 58.2096 59.4991C58.5299 59.6054 58.8877 59.5523 59.1676 59.3523C59.4454 59.1524 59.6093 58.8313 59.6093 58.4898V11.6984C59.6093 11.1997 59.2634 10.7679 58.7758 10.6605C58.7758 10.6605 57.9413 10.4744 56.5149 10.2127C55.939 10.1064 55.3824 10.4892 55.2758 11.0656C55.1694 11.6441 55.5515 12.1982 56.1296 12.3045C56.6736 12.4044 57.1291 12.4927 57.4804 12.5629V57.0766C55.0683 56.4449 49.7121 55.2996 42.578 55.2996C37.9402 55.2996 33.3844 56.8213 31.975 57.3372C30.7221 56.7842 26.9348 55.2996 22.3534 55.2996C15.0214 55.2996 8.98168 56.5077 6.38658 57.1213V12.5214C8.51229 11.9993 14.7905 10.6349 22.3534 10.6349C26.2344 10.6349 29.5629 11.8419 30.869 12.3875V54.2362C30.869 54.619 31.0755 54.9732 31.4086 55.1614C31.7418 55.3507 32.1527 55.3453 32.4817 55.1475C32.5871 55.0849 43.1336 48.7913 52.4944 45.6744C52.9297 45.5287 53.2225 45.1235 53.2225 44.6652V1.06391C53.2225 0.715091 53.0511 0.388581 52.7637 0.189808C52.4784 -0.00908946 52.1123 -0.0548259 51.7834 0.0675533C43.2667 3.25888 34.649 8.61653 34.5627 8.66974C34.0645 8.9813 33.9123 9.63743 34.2242 10.1352C34.535 10.6329 35.1918 10.785 35.691 10.4734C35.7697 10.4234 43.2667 5.76342 51.0936 2.61882V43.9039C43.8275 46.4263 36.2412 50.5451 32.9978 52.389V11.6984C32.9978 11.2954 32.7701 10.9274 32.4092 10.7467C32.2261 10.6563 27.864 8.5081 22.3534 8.5081C12.735 8.5081 5.34026 10.5872 5.02941 10.6764C4.57273 10.8061 4.25764 11.2241 4.25764 11.6984V58.49C4.25764 58.8229 4.41519 59.1377 4.68026 59.3387C4.86762 59.4802 5.09328 59.5536 5.32218 59.5536C5.4201 59.5536 5.51802 59.5397 5.61382 59.5121C5.68729 59.4919 13.048 57.4266 22.3534 57.4266C26.245 57.4266 29.5703 58.6368 30.869 59.1802V61.6804H5.32218C3.56159 61.6804 2.12882 60.249 2.12882 58.49V17.0157C2.12882 16.4287 1.65194 15.9523 1.06441 15.9523C0.476883 15.9523 0 16.4287 0 17.0157V58.49C0 61.4219 2.38753 63.8073 5.3223 63.8073H58.5449C61.4796 63.8073 63.8672 61.422 63.8672 58.49V17.0157C63.8671 16.4286 63.3913 15.9522 62.8027 15.9522Z" transform="translate(0.0698242 0.984619)" fill="#D80027"/>
<path d="M0.11565 5.80051C0.304008 6.16852 0.678728 6.38113 1.06617 6.38113C1.22796 6.38113 1.39399 6.34387 1.54842 6.26523C1.61116 6.23333 7.87663 3.05359 10.9667 2.07842C11.5267 1.90083 11.8374 1.30314 11.6596 0.743834C11.4829 0.184404 10.889 -0.127152 10.3238 0.0494382C7.06868 1.07782 0.84588 4.23625 0.58193 4.37022C0.0581445 4.63604 -0.150421 5.27635 0.11565 5.80051Z" transform="translate(36.2603 19.0632)" fill="#D80027"/>
<path d="M0.11565 5.80051C0.304008 6.16852 0.678728 6.38113 1.06617 6.38113C1.22796 6.38113 1.39399 6.34387 1.54842 6.26523C1.61116 6.23333 7.87663 3.05359 10.9667 2.07842C11.5267 1.90083 11.8374 1.30314 11.6596 0.743834C11.4829 0.184404 10.889 -0.127152 10.3238 0.0494382C7.06868 1.07782 0.84588 4.23625 0.58193 4.37022C0.0581445 4.63604 -0.150421 5.27635 0.11565 5.80051Z" transform="translate(36.2603 31.8245)" fill="#D80027"/>
<path d="M15.1453 0.588406C8.57238 -0.95255 1.10305 1.01063 0.789077 1.09462C0.221757 1.24666 -0.115666 1.8294 0.0365178 2.3973C0.164252 2.87261 0.594232 3.18529 1.06376 3.18529C1.15531 3.18529 1.24787 3.17357 1.34055 3.14915C1.41191 3.12896 8.60332 1.23918 14.6601 2.65888C15.2295 2.79185 15.8055 2.43768 15.9395 1.86554C16.0735 1.29452 15.718 0.722375 15.1453 0.588406Z" transform="translate(10.7139 20.1321)" fill="#D80027"/>
<path d="M15.1453 0.587917C8.57238 -0.951917 1.10305 1.01014 0.789077 1.09413C0.221757 1.24617 -0.115666 1.82903 0.0365178 2.39681C0.164252 2.87212 0.594232 3.1848 1.06376 3.1848C1.15531 3.1848 1.24787 3.17308 1.34055 3.14866C1.41191 3.12847 8.60332 1.2387 14.6601 2.65839C15.2295 2.79137 15.8055 2.43719 15.9395 1.86505C16.0735 1.29403 15.718 0.721886 15.1453 0.587917Z" transform="translate(10.7139 26.5134)" fill="#D80027"/>
<path d="M0.11565 5.8005C0.304008 6.16851 0.678728 6.38112 1.06617 6.38112C1.22796 6.38112 1.39399 6.34386 1.54842 6.26522C1.61116 6.23332 7.87663 3.05358 10.9667 2.0784C11.5267 1.90082 11.8374 1.30313 11.6596 0.743823C11.4829 0.184518 10.889 -0.127163 10.3238 0.0494273C7.06868 1.07781 0.84588 4.23624 0.58193 4.37021C0.0581445 4.63603 -0.150421 5.27634 0.11565 5.8005Z" transform="translate(36.2603 38.2051)" fill="#D80027"/>
<path d="M15.1453 0.588107C8.57238 -0.951727 1.10305 1.00921 0.789077 1.09432C0.221757 1.24636 -0.115666 1.82922 0.0365178 2.397C0.164252 2.87231 0.594232 3.18611 1.06376 3.18611C1.15531 3.18611 1.24787 3.1734 1.34055 3.14885C1.41191 3.12866 8.60332 1.23889 14.6601 2.65858C15.2295 2.79156 15.8055 2.43738 15.9395 1.86524C16.0735 1.29422 15.718 0.722077 15.1453 0.588107Z" transform="translate(10.7139 32.8938)" fill="#D80027"/>
<path d="M15.1453 0.588406C8.57238 -0.95255 1.10305 1.01063 0.789077 1.09462C0.221757 1.24666 -0.115666 1.82952 0.0365178 2.3973C0.164252 2.87261 0.594232 3.18641 1.06376 3.18641C1.15531 3.18641 1.24787 3.1737 1.34055 3.14915C1.41191 3.12896 8.60332 1.23918 14.6601 2.65888C15.2295 2.79073 15.8055 2.43768 15.9395 1.86554C16.0735 1.29452 15.718 0.722375 15.1453 0.588406Z" transform="translate(10.7139 45.6548)" fill="#D80027"/>
<path d="M15.1453 0.588596C8.57238 -0.95236 1.10305 1.0097 0.789077 1.09481C0.221757 1.24685 -0.115666 1.82971 0.0365178 2.39749C0.164252 2.8728 0.594232 3.1866 1.06376 3.1866C1.15531 3.1866 1.24787 3.17389 1.34055 3.14934C1.41191 3.12915 8.60332 1.23937 14.6601 2.65907C15.2295 2.79204 15.8055 2.43787 15.9395 1.86573C16.0735 1.29471 15.718 0.722565 15.1453 0.588596Z" transform="translate(10.7139 39.2739)" fill="#D80027"/>
</svg>
