<svg width="142" height="235" viewBox="0 0 142 235" fill="none" xmlns="http://www.w3.org/2000/svg">
<path opacity="0.0580357" fill-rule="evenodd" clip-rule="evenodd" d="M86.67 151.833H35.31C35.31 112.029 81.855 89.88 81.855 71.583C81.855 56.175 69.015 51.36 52.323 51.36C33.705 51.36 13.803 58.422 0 66.447V15.087C17.013 6.42 38.52 0 62.274 0C102.72 0 141.24 14.124 141.24 57.138C141.24 101.115 86.67 125.19 86.67 151.833ZM94.0528 202.551C94.0528 224.7 78.9659 234.33 61.3108 234.33C43.9768 234.33 28.5688 224.7 28.5688 202.551C28.5688 180.723 43.9768 171.093 61.3108 171.093C78.9659 171.093 94.0528 180.723 94.0528 202.551Z" transform="translate(0.234863 0.484863)" fill="#637C98"/>
</svg>
