<svg width="10" height="15" viewBox="0 0 10 15" fill="none" xmlns="http://www.w3.org/2000/svg">
<path fill-rule="evenodd" clip-rule="evenodd" d="M8.35254 3.53857C8.35254 5.48926 6.76025 7.07666 4.80273 7.07666H2.50586V8.32568H4.80273C5.14893 8.32568 5.4292 8.60498 5.4292 8.9502C5.4292 9.29492 5.14893 9.57471 4.80273 9.57471H2.50586V13.1128C2.50586 13.4575 2.22559 13.7373 1.87939 13.7373C1.5332 13.7373 1.25293 13.4575 1.25293 13.1128V9.57471H0.626465C0.280273 9.57471 0 9.29492 0 8.9502C0 8.60498 0.280273 8.32568 0.626465 8.32568H1.25293V6.45215V0.625C1.25293 0.279785 1.5332 0.000488281 1.88037 0.000488281H4.78027L4.80273 0C6.76025 0 8.35254 1.5874 8.35254 3.53857ZM4.82324 1.24902L4.80273 1.24951H2.50586V5.82812H4.80273C6.06934 5.82812 7.1001 4.80078 7.1001 3.53857C7.1001 2.28271 6.08057 1.25977 4.82324 1.24902Z" transform="translate(0.92334 0.567871)" fill="#637C98"/>
</svg>
