<svg width="17" height="29" viewBox="0 0 17 29" fill="none" xmlns="http://www.w3.org/2000/svg">
<path fill-rule="evenodd" clip-rule="evenodd" d="M16.7056 7.07666C16.7056 10.979 13.5205 14.1538 9.60547 14.1538H5.01172V16.6514H9.60547C10.2979 16.6514 10.8584 17.2104 10.8584 17.8999C10.8584 18.5898 10.2979 19.1489 9.60547 19.1489H5.01172V26.2256C5.01172 26.9155 4.45068 27.4746 3.75879 27.4746C3.06689 27.4746 2.50586 26.9155 2.50586 26.2256V19.1489H1.25293C0.561035 19.1489 0 18.5898 0 17.8999C0 17.2104 0.561035 16.6514 1.25293 16.6514H2.50586V12.9048V1.24951C2.50586 0.560059 3.06689 0.000976562 3.76025 0.000976562H9.56006L9.60547 0C13.5205 0 16.7056 3.1748 16.7056 7.07666ZM9.646 2.49805L9.60596 2.49854H5.01172V11.6562H9.60596C12.1387 11.6562 14.1997 9.60205 14.1997 7.07715C14.1997 4.56543 12.1606 2.51953 9.646 2.49805Z" transform="translate(0.0737305 0.650879)" fill="black"/>
</svg>
