<svg width="65" height="65" viewBox="0 0 65 65" fill="none" xmlns="http://www.w3.org/2000/svg">
<path fill-rule="evenodd" clip-rule="evenodd" d="M22.1138 20.9192C22.1138 9.38428 31.5068 0 43.0527 0C54.5986 0 63.9917 9.38428 63.9917 20.9192C63.9917 32.4539 54.5986 41.8384 43.0527 41.8384C37.6523 41.8384 32.7227 39.7847 29.0049 36.4185L24.6357 40.7834C25.0635 41.4763 25.2925 42.2754 25.2925 43.1101C25.293 44.2981 24.8296 45.415 23.9888 46.2551L7.59961 62.6284C6.75879 63.4685 5.64111 63.9314 4.45215 63.9314C3.2627 63.9314 2.14502 63.4685 1.3042 62.6284C0.463379 61.7883 0 60.6716 0 59.4836C0 58.2957 0.462891 57.1787 1.30371 56.3386L17.6929 39.9651C18.5337 39.125 19.6514 38.6624 20.8408 38.6624C21.6763 38.6624 22.4761 38.8916 23.1699 39.3188L27.5391 34.9539C24.1694 31.2395 22.1138 26.3147 22.1138 20.9192ZM2.77002 61.1638C3.21924 61.6128 3.81641 61.8601 4.45215 61.8601C5.0874 61.8601 5.68506 61.6128 6.13379 61.1641L6.40869 60.8899L3.04443 57.5291L2.77002 57.8032C2.3208 58.252 2.07324 58.8489 2.07324 59.4836C2.07324 60.1184 2.3208 60.7151 2.77002 61.1638ZM22.5229 44.7905L7.87451 59.425L4.51074 56.0642L19.1592 41.4297C19.6084 40.9807 20.2056 40.7336 20.8413 40.7336C21.4766 40.7336 22.0737 40.9807 22.5234 41.4299C22.9727 41.8787 23.2202 42.4753 23.2202 43.1101C23.2197 43.7449 22.9722 44.3418 22.5229 44.7905ZM24.187 20.9192C24.187 31.312 32.6504 39.7671 43.0527 39.7671C53.4556 39.7671 61.9189 31.312 61.9189 20.9192C61.9189 10.5264 53.4556 2.07129 43.0527 2.07129C32.6504 2.07129 24.187 10.5264 24.187 20.9192Z" transform="translate(0.93457 0.984619)" fill="#D80027"/>
<path d="M9.55102 0C4.2846 0 0 3.55412 0 7.92279C0 8.72492 0.142798 9.5162 0.424386 10.2748C0.628497 10.8245 1.21091 11.0928 1.72519 10.8751C2.23948 10.6569 2.49088 10.0345 2.2869 9.48494C2.09895 8.97902 2.00371 8.4534 2.00371 7.92293C2.00371 4.73497 5.38945 2.14144 9.55102 2.14144C13.7126 2.14144 17.0983 4.73497 17.0983 7.92293C17.0983 10.8551 14.2314 13.3238 10.4296 13.6653C9.37509 13.76 8.54916 14.7255 8.54916 15.8634V17.0591C8.54916 17.6505 8.9976 18.1298 9.55102 18.1298C10.1044 18.1298 10.5529 17.6505 10.5529 17.0591V15.8634C10.5529 15.8312 10.5736 15.801 10.5974 15.799C15.4458 15.3634 19.102 11.9774 19.102 7.92279C19.102 3.55412 14.8174 0 9.55102 0Z" transform="translate(33.4082 11.4807)" fill="#D80027"/>
<path d="M1.9102 0C0.856957 0 0 0.856146 0 1.9084C0 2.96065 0.856957 3.81679 1.9102 3.81679C2.96345 3.81679 3.82041 2.96065 3.82041 1.9084C3.82041 0.856146 2.96358 0 1.9102 0Z" transform="translate(42.0039 31.519)" fill="#D80027"/>
</svg>
