<svg width="68" height="66" viewBox="0 0 68 66" fill="none" xmlns="http://www.w3.org/2000/svg">
<path fill-rule="evenodd" clip-rule="evenodd" d="M59.7603 38.5181H63.4639C65.335 38.5181 66.8569 40.0562 66.8569 41.9468V44.2812C66.8569 46.1719 65.335 47.71 63.4639 47.71H3.39355C1.52246 47.71 0 46.1719 0 44.2812V41.9468C0 40.0562 1.52246 38.5181 3.39355 38.5181H7.09668L11.5298 11.6431C12.6426 4.89673 18.3633 0 25.1323 0H41.7246C48.4937 0 54.2144 4.89673 55.3271 11.6431L59.7603 38.5181ZM25.1323 2.18848C19.4263 2.18848 14.604 6.31592 13.666 12.0027L9.29248 38.5181H32.3452V27.78C29.0762 27.2537 26.5693 24.3857 26.5693 20.9368C26.5693 17.1155 29.6465 14.0066 33.4282 14.0066C37.2104 14.0066 40.2871 17.1155 40.2871 20.9368C40.2871 24.3857 37.7808 27.2537 34.5112 27.78V38.5181H57.564L53.1904 12.0027C52.2524 6.31616 47.4302 2.18848 41.7246 2.18848H25.1323ZM33.4282 25.6787C30.8403 25.6787 28.7354 23.5515 28.7354 20.9368C28.7354 18.3223 30.8403 16.1951 33.4282 16.1951C36.0161 16.1951 38.1216 18.3223 38.1216 20.9368C38.1216 23.5515 36.0161 25.6787 33.4282 25.6787ZM63.4639 45.5212C64.1406 45.5212 64.6914 44.9651 64.6914 44.2812V41.9468C64.6914 41.2629 64.1406 40.7065 63.4639 40.7065H3.39355C2.7168 40.7065 2.16602 41.2629 2.16602 41.9468V44.2812C2.16602 44.9651 2.7168 45.5212 3.39355 45.5212H63.4639Z" transform="translate(0.15918 17.2976)" fill="#D80027"/>
<path d="M1.04193 1.9084H6.59889C7.17445 1.9084 7.64082 1.48117 7.64082 0.954198C7.64082 0.427226 7.17445 0 6.59889 0H1.04193C0.466368 0 0 0.427226 0 0.954198C0 1.48117 0.466368 1.9084 1.04193 1.9084Z" transform="translate(0.15918 37.3357)" fill="#D80027"/>
<path d="M0 0.954198C0 1.48117 0.466402 1.9084 1.04201 1.9084H6.59881C7.17441 1.9084 7.64082 1.48117 7.64082 0.954198C7.64082 0.427226 7.17441 0 6.59881 0H1.04201C0.466402 0 0 0.427099 0 0.954198Z" transform="translate(59.3755 37.3357)" fill="#D80027"/>
<path d="M0.955102 15.2672C1.4827 15.2672 1.9102 14.7694 1.9102 14.1555V1.11169C1.9102 0.49774 1.4827 0 0.955102 0C0.427504 0 0 0.49774 0 1.11169V14.1555C0 14.7694 0.427504 15.2672 0.955102 15.2672Z" transform="translate(32.6328 0.12207)" fill="#D80027"/>
<path d="M4.86427 6.36716C5.07266 6.57522 5.34578 6.67939 5.61875 6.67939C5.89172 6.67939 6.16484 6.57536 6.37323 6.36716C6.78988 5.95091 6.78988 5.276 6.37323 4.85989L1.8213 0.312192C1.40452 -0.104064 0.729126 -0.104064 0.312483 0.312192C-0.104161 0.728448 -0.104161 1.40335 0.312483 1.81947L4.86427 6.36716Z" transform="translate(7.7998 12.5266)" fill="#D80027"/>
<path d="M1.06682 6.67939C1.3398 6.67939 1.61291 6.57536 1.8213 6.36716L6.37323 1.81947C6.78988 1.40321 6.78988 0.728306 6.37323 0.312192C5.95645 -0.104064 5.28105 -0.104064 4.86441 0.312192L0.312483 4.85989C-0.104161 5.27614 -0.104161 5.95105 0.312483 6.36716C0.520733 6.57522 0.793849 6.67939 1.06682 6.67939Z" transform="translate(51.7349 12.5266)" fill="#D80027"/>
<path d="M0.079788 2.2862C0.246214 2.64557 0.634727 2.8626 1.04439 2.8626C1.17742 2.8626 1.31281 2.8397 1.44334 2.79129L4.13092 1.79578C4.66346 1.59855 4.91644 1.05264 4.69574 0.576413C4.47518 0.100312 3.86459 -0.126042 3.33219 0.0713174L0.644606 1.06682C0.111932 1.26406 -0.140907 1.80997 0.079788 2.2862Z" transform="translate(57.4653 25.8855)" fill="#D80027"/>
<path d="M1.68615 5.08068C1.86303 5.48253 2.27594 5.72519 2.71133 5.72519C2.85272 5.72519 2.99662 5.69959 3.13534 5.64546C3.70132 5.42492 3.97019 4.8145 3.73563 4.282L2.13426 0.644526C1.89985 0.112165 1.25105 -0.140936 0.685071 0.0797448C0.11909 0.300286 -0.149777 0.910845 0.0847789 1.44321L1.68615 5.08068Z" transform="translate(21.1714 9.66406)" fill="#D80027"/>
<path d="M0.685016 5.64546C0.82374 5.69959 0.967492 5.72519 1.10903 5.72519C1.54428 5.72519 1.95719 5.48252 2.13422 5.08066L3.73561 1.44309C3.97017 0.910575 3.70144 0.300139 3.13531 0.079591C2.56991 -0.140678 1.92052 0.111873 1.6861 0.644387L0.0847178 4.28196C-0.149693 4.81448 0.119029 5.42491 0.685016 5.64546Z" transform="translate(42.1836 9.66406)" fill="#D80027"/>
<path d="M0.651696 1.80801L3.31612 2.7908C3.4481 2.83954 3.58486 2.8626 3.71951 2.8626C4.13358 2.8626 4.52642 2.64409 4.69484 2.28224C4.91798 1.80275 4.66233 1.2531 4.12374 1.05451L1.45931 0.0717186C0.921276 -0.126744 0.303606 0.100786 0.0805971 0.580278C-0.142412 1.05977 0.113239 1.60943 0.651696 1.80801Z" transform="translate(4.93457 25.8855)" fill="#D80027"/>
</svg>
