<svg width="82" height="66" viewBox="0 0 82 66" fill="none" xmlns="http://www.w3.org/2000/svg">
<path fill-rule="evenodd" clip-rule="evenodd" d="M40.9072 0C51.7646 0 61.9868 3.14673 69.6909 8.86011C77.5088 14.6582 81.8145 22.4021 81.8145 30.666C81.8145 38.9294 77.5088 46.6736 69.6909 52.4717C61.9868 58.1853 51.7646 61.3318 40.9072 61.3318C35.3169 61.3318 29.8965 60.4983 24.7832 58.854C18.5596 62.7527 10.564 65.3494 10.2173 65.4612C10.0825 65.5046 9.94385 65.5256 9.80713 65.5256C9.41553 65.5256 9.03564 65.3535 8.7793 65.0425C8.43359 64.6226 8.38477 64.0352 8.65625 63.5649C8.68604 63.5137 11.4692 58.675 13.5664 53.4807C4.9292 47.6653 0 39.4019 0 30.666C0 22.4021 4.30518 14.6582 12.1235 8.86011C19.8271 3.14673 30.0493 0 40.9072 0ZM25.0249 56.1716C30.041 57.8564 35.3843 58.7109 40.9072 58.7109C62.002 58.7109 79.1636 46.1301 79.1636 30.666C79.1636 15.2019 62.002 2.62109 40.9072 2.62109C19.812 2.62109 2.65039 15.2019 2.65039 30.666C2.65039 38.7932 7.48145 46.5208 15.9048 51.8679C16.4316 52.2024 16.6499 52.8557 16.4282 53.4346C15.2227 56.5852 13.7344 59.6479 12.6138 61.8103C15.627 60.6523 20.2012 58.7031 23.8701 56.3174C24.2119 56.0952 24.6382 56.0417 25.0249 56.1716Z" fill="#D80027"/>
<path fill-rule="evenodd" clip-rule="evenodd" d="M0 4.1062C0 1.84204 1.86279 0 4.15234 0C6.44238 0 8.30518 1.84204 8.30518 4.1062C8.30518 6.37036 6.44238 8.21265 4.15234 8.21265C1.86279 8.21265 0 6.37036 0 4.1062ZM2.65039 4.10645C2.65039 4.92529 3.32422 5.59155 4.15234 5.59155C4.98047 5.59155 5.6543 4.92529 5.6543 4.10645C5.6543 3.28735 4.98047 2.62109 4.15234 2.62109C3.32422 2.62109 2.65039 3.28735 2.65039 4.10645Z" transform="translate(36.7544 43.3342)" fill="#D80027"/>
<path fill-rule="evenodd" clip-rule="evenodd" d="M4.09082 29.1807H4.0791C2.49268 29.1807 1.19141 27.9531 1.11719 26.3857L0.00292969 2.83496C-0.0317383 2.09912 0.243652 1.37134 0.757812 0.838623C1.27197 0.305664 1.99414 0 2.73926 0H5.43115C6.17578 0 6.89795 0.305664 7.41211 0.838623C7.92676 1.37134 8.20166 2.09912 8.16699 2.83496L7.05273 26.3857C6.97852 27.9531 5.67725 29.1807 4.09082 29.1807ZM2.73877 2.62109C2.72852 2.62109 2.70068 2.62109 2.6748 2.64795C2.64893 2.67529 2.65039 2.70264 2.65039 2.71265L3.76514 26.2629C3.77295 26.4294 3.91064 26.5596 4.0791 26.5596H4.09033C4.2583 26.5596 4.39648 26.4294 4.4043 26.2629L5.51904 2.7124C5.51953 2.70264 5.52051 2.67505 5.49463 2.64795C5.46826 2.62109 5.44092 2.62109 5.43066 2.62109H2.73877Z" transform="translate(36.8223 11.1831)" fill="#D80027"/>
</svg>
