<svg width="81" height="45" viewBox="0 0 81 45" fill="none" xmlns="http://www.w3.org/2000/svg">
<path d="M70.2351 7.90297C64.0905 1.89363 54.0357 1.95043 47.8209 8.02879C47.7978 8.05141 47.776 8.07503 47.753 8.09765C46.7437 6.48555 45.4863 5.0181 44.0085 3.75919C40.833 1.05299 36.7579 -0.265359 32.5334 0.0444128C28.3156 0.354515 24.4535 2.2531 21.6588 5.39045C20.3591 6.84932 19.4191 8.56429 18.8997 10.4071C17.8763 10.2411 16.8266 10.1534 15.7566 10.1534C7.06838 10.1534 0 17.1467 0 25.7426C0 32.7559 5.7682 38.4615 12.8584 38.4615C18.6703 38.4615 23.3986 33.7859 23.3986 28.0386C23.3986 23.3044 19.5025 19.4527 14.7133 19.4527C10.7424 19.4527 7.51191 22.645 7.51191 26.5692C7.51191 27.2531 8.07868 27.8076 8.77816 27.8076C9.47764 27.8076 10.0444 27.2531 10.0444 26.5692C10.0444 24.0109 12.1388 21.9295 14.7133 21.9295C18.106 21.9295 20.8661 24.6701 20.8661 28.0386C20.8661 32.42 17.2739 35.9847 12.8584 35.9847C7.16462 35.9847 2.5325 31.3901 2.5325 25.7426C2.5325 18.5125 8.4648 12.6303 15.7566 12.6303C25.0459 12.6303 32.6031 20.1218 32.6031 29.3302C32.6031 34.2121 36.664 38.1838 41.6556 38.1838C42.3551 38.1838 42.9219 37.6293 42.9219 36.9454C42.9219 36.2614 42.3551 35.7069 41.6556 35.7069C38.0605 35.7069 35.1356 32.8464 35.1356 29.3302C35.1356 27.7031 34.9291 26.123 34.5418 24.6135C35.7569 24.0051 36.855 23.1688 37.7596 22.1538C40.9379 18.5838 40.5871 13.1765 36.9771 10.0994C34.7876 8.23487 31.6762 7.8493 29.05 9.11745C28.4229 9.42029 28.1656 10.163 28.4753 10.7761C28.7849 11.3894 29.5445 11.6412 30.1712 11.3384C31.8783 10.5137 33.8972 10.7608 35.3137 11.967C37.8709 14.1468 38.1113 17.9869 35.8501 20.5268C35.2492 21.2012 34.5357 21.7697 33.751 22.2129C31.5744 16.8432 27.0115 12.6668 21.3676 10.9743C21.7913 9.52316 22.5401 8.17162 23.5683 7.01774C25.9225 4.37478 29.1739 2.77555 32.7235 2.51449C36.2663 2.25393 39.684 3.3591 42.3451 5.62707C45.8641 8.62456 47.9507 12.981 48.0701 17.579C48.0757 17.7952 48.0819 19.2638 48.0801 25.0334C48.0789 28.5457 49.4765 31.848 52.0156 34.332C54.5545 36.8159 57.9305 38.184 61.5217 38.184C62.2212 38.184 62.788 37.6295 62.788 36.9455C62.788 36.2616 62.2212 35.7071 61.5217 35.7071C58.6072 35.7071 55.8673 34.5968 53.8067 32.5808C52.5124 31.3147 51.5842 29.7863 51.0726 28.1185C52.3711 28.6521 53.7522 28.9186 55.1338 28.9186C57.8756 28.9186 60.6173 27.8776 62.7069 25.8339C66.13 22.4877 66.1603 17.0696 62.7738 13.7556C59.9648 11.0104 55.3718 11.034 52.5352 13.8084C52.0407 14.2921 52.0407 15.0763 52.5354 15.5597C53.0297 16.0436 53.8315 16.0434 54.326 15.5597C56.1756 13.7506 59.1619 13.7274 60.983 15.5069C63.3819 17.8545 63.3521 21.7012 60.9163 24.0821C58.112 26.8246 53.7773 27.2044 50.6132 25.0613C50.6132 25.0522 50.6126 25.0431 50.6126 25.034C50.6151 18.0217 50.6051 17.6413 50.6019 17.5161C50.5379 15.0526 49.9821 12.6494 48.9978 10.4356C49.192 10.2104 49.3965 9.99079 49.6119 9.78009C54.8391 4.66754 63.2874 4.6109 68.4442 9.65427C71.6236 12.7637 73.3587 16.9146 73.3301 21.3425C73.3257 22.0265 73.8891 22.5844 74.5884 22.5887C74.5911 22.5887 74.5937 22.5887 74.5965 22.5887C75.2921 22.5887 75.8582 22.0394 75.8626 21.3581C75.8954 16.2628 73.8967 11.4842 70.2351 7.90297Z" transform="translate(3.84961 5.96582)" fill="#D80027"/>
<path d="M17.7546 2.49406C18.1522 2.49406 18.554 2.50787 18.9489 2.53497C19.6443 2.58303 20.25 2.06456 20.2983 1.37748C20.3468 0.690403 19.8214 0.0946145 19.1245 0.0468915C18.6714 0.0157968 18.2105 0 17.7546 0C10.2408 0 3.31932 4.33431 0.12052 11.0423C-0.176765 11.6657 0.094889 12.4085 0.726892 12.7016C0.900744 12.7823 1.08387 12.8205 1.2643 12.8205C1.73897 12.8205 2.19426 12.5555 2.40959 12.1037C5.19307 6.26617 11.2163 2.49406 17.7546 2.49406Z" transform="translate(0.644043 10.2395)" fill="#D80027"/>
<path d="M1.29511 5.34188C1.6265 5.34188 1.95806 5.21989 2.21105 4.97575C3.27827 3.94568 4.47449 3.05577 5.76673 2.33068C6.38496 1.98371 6.59478 1.21862 6.23524 0.621846C5.87552 0.0249046 5.08271 -0.177409 4.46448 0.169724C2.979 1.00331 1.60457 2.02571 0.379334 3.20826C-0.126474 3.69638 -0.126474 4.4878 0.379507 4.97575C0.632324 5.21989 0.963716 5.34188 1.29511 5.34188Z" transform="translate(23.0825 2.76074)" fill="#D80027"/>
<path d="M1.47066 2.63567C6.83673 1.86642 12.3282 3.60164 16.1595 7.27602C16.4443 7.54909 16.7222 7.83461 16.9854 8.12471C17.2385 8.404 17.5945 8.54701 17.9523 8.54701C18.2505 8.54701 18.55 8.44774 18.7927 8.24544C19.3265 7.80004 19.3827 7.02409 18.9182 6.51218C18.6162 6.17916 18.2975 5.85171 17.9711 5.53867C13.568 1.31603 7.25862 -0.677351 1.09198 0.205738C0.392189 0.305989 -0.0901689 0.931244 0.014194 1.6022C0.118728 2.27316 0.770868 2.73461 1.47066 2.63567Z" transform="translate(33.7671 0.624023)" fill="#D80027"/>
</svg>
